<ttFont>
          <CharString index="0">
            4 -68 rlineto
            76 320 hlineto
            147 -29 51 -161 -58 -60 -6 -8 -47 vhcurveto
            -70 vlineto
            5 30 70 6 38 hhcurveto
            112 20 -8 -116 hvcurveto
            -29 vlineto
            1 -26 -98 4 -30 hhcurveto
            -111 -33 -42 -115 hvcurveto
            return
          </CharString>
          <CharString index="1">
            rmoveto
            191 -9 72 -176 -188 -14 -75 -189 -197 22 -65 186 57 68 6 8 37 vhcurveto
            70 vlineto
            -6 -47 -58 -5 -40 hhcurveto
            -132 -8 29 130 hvcurveto
            302 hlineto
            -187 221 rmoveto
            84 20 -16 -134 hvcurveto
            -5 -219 vlineto
            128 1 10 27 104 hhcurveto
            return
          </CharString>
          <CharString index="2">
            rmoveto
            -56 hlineto
            -58 -2 -31 -71 -71 0 31 58 vhcurveto
            -56 hlineto
            -83 7 -59 120 120 9 59 83 vhcurveto
            return
          </CharString>
          <CharString index="3">
            rmoveto
            188 13 52 211 211 -13 52 -188 -25 callsubr
            hvcurveto
            72 22 callsubr
            return
          </CharString>
          <CharString index="4">
            -113 -4 -63 -107 -89 -13 14 136 vhcurveto
            291 -85 -322 vlineto
            -135 21 -61 130 87 40 30 48 19 vhcurveto
            6 hlineto
            return
          </CharString>
          <CharString index="5">
            -111 48 -37 97 vhcurveto
            34 74 rmoveto
            -79 -16 13 68 72 15 12 65 hvcurveto
            134 -23 hlineto
            -47 -7 -31 -13 -23 vhcurveto
            -35 -20 -36 -6 -43 hhcurveto
            return
          </CharString>
          <CharString index="6">
            11 -34 -35 12 -35 hhcurveto
            -64 -6 -36 -79 hvcurveto
            50 hlineto
            39 2 14 25 22 27 -10 -9 28 vhcurveto
            return
          </CharString>
          <CharString index="7">
            -103 callgsubr
            endchar
          </CharString>
          <CharString index="8">
            -113 -2 24 167 167 2 24 113 114 2 -24 -167 -167 -2 -24 -114 hvcurveto
            return
          </CharString>
          <CharString index="9">
            rmoveto
            113 58 27 125 115 -31 20 -68 8 hvcurveto
            -113 14 rlineto
            -45 5 -9 7 58 vvcurveto
            68 33 7 68 47 51 -4 -7 42 vhcurveto
            69 vlineto
            8 -35 -60 6 -48 hhcurveto
            -110 -71 -20 -130 -90 19 -39 77 -9 hvcurveto
            114 -15 rlineto
            46 -5 10 -3 -66 vvcurveto
            -54 -10 -23 -88 -52 -51 3 7 -51 vhcurveto
            -69 vlineto
            -7 44 68 -6 52 hhcurveto
            return
          </CharString>
          <CharString index="10">
            -4 -70 rlineto
            -5 hlineto
            66 -25 -60 12 -58 hhcurveto
            -129 -36 -54 -208 -206 34 -54 131 69 47 17 53 23 hvcurveto
            5 -20 hlineto
            -145 -13 -31 -130 -40 -53 2 2 -47 vhcurveto
            -67 vlineto
            -6 38 65 -4 55 hhcurveto
            14 274 112 callsubr
            166 167 13 19 100 55 32 -17 -45 13 hvcurveto
            10 -29 1 -41 -54 vvcurveto
            -57 -1 -41 -11 -31 vhcurveto
            -40 -14 -30 113 callsubr
          </CharString>
          <CharString index="11">
            rmoveto
            214 6 61 238 hvcurveto
            91 -216 -77 127 -28 vlineto
            -190 -7 -17 -128 -141 -20 27 247 267 31 7 179 35 64 -6 -9 55 vhcurveto
            73 vlineto
            12 -52 -79 8 -59 hhcurveto
            -217 -47 -59 -293 -293 38 -59 217 hvcurveto
            return
          </CharString>
          <CharString index="12">
            rmoveto
            -6 102 -31 27 -62 16 rrcurveto
            4 vlineto
            68 18 37 41 123 vvcurveto
            123 -40 64 -132 vhcurveto
            -275 -688 90 273 153 hlineto
            102 3 -55 -68 4 hvcurveto
            10 -150 rlineto
            89 hlineto
            -209 350 rmoveto
            -152 260 154 hlineto
            105 7 -42 -88 -86 -16 -44 -98 hvcurveto
            return
          </CharString>
          <CharString index="13">
            -104 285 rlineto
            84 30 8 86 78 vvcurveto
            119 -16 90 -163 vhcurveto
            -268 -688 91 269 165 hlineto
            4 4 0 1 5 hvcurveto
            94 -270 rlineto
            -125 347 rmoveto
            -147 263 152 hlineto
            107 7 -41 -90 -90 -9 -42 -110 hvcurveto
            return
          </CharString>
          <CharString index="14">
            390 78 -299 231 259 78 -259 223 299 78 -390 hlineto
            return
          </CharString>
          <CharString index="15">
            rmoveto
            75 vlineto
            -6 -33 -49 -4 -37 hhcurveto
            -159 -13 24 250 250 13 24 159 31 45 -4 -6 40 hvcurveto
            73 vlineto
            9 -32 -57 6 -48 hhcurveto
            -209 -33 -62 -290 -293 32 -59 210 46 59 6 7 35 hvcurveto
            endchar
          </CharString>
          <CharString index="16">
            rmoveto
            79 82 -79 hlineto
            183 -82 rmoveto
            79 82 -79 hlineto
            return
          </CharString>
          <CharString index="17">
            90 259 hlineto
            213 429 rlineto
            -92 hlineto
            -160 -330 rlineto
            -7 hlineto
            -160 330 rlineto
            -95 hlineto
            211 -429 rlineto
            return
          </CharString>
          <CharString index="18">
            -105 callsubr
            endchar
          </CharString>
          <CharString index="19">
            rmoveto
            70 vlineto
            -6 -31 -42 -4 -31 hhcurveto
            -106 -16 28 162 158 15 32 105 30 42 -4 -6 31 hvcurveto
            69 vlineto
            8 -29 -53 6 -42 hhcurveto
            -156 -28 -76 -188 -175 16 -87 171 41 52 6 7 31 hvcurveto
            endchar
          </CharString>
          <CharString index="20">
            20 callgsubr
            71 0 -31 -58 vhcurveto
            56 hlineto
            83 -7 59 -120 -120 -9 -59 -83 vhcurveto
            return
          </CharString>
          <CharString index="21">
            359 72 -253 hlineto
            251 372 rlineto
            66 -347 -72 242 vlineto
            -252 -372 rlineto
            return
          </CharString>
          <CharString index="22">
            rmoveto
            97 100 -97 hlineto
            endchar
          </CharString>
          <CharString index="23">
            113 hlineto
            153 688 rlineto
            -90 hlineto
            -117 -571 rlineto
            -6 hlineto
            -136 571 rlineto
            -100 hlineto
            -134 -571 rlineto
            -6 hlineto
            -121 571 rlineto
            -92 hlineto
            154 -688 rlineto
            113 hlineto
            return
          </CharString>
          <CharString index="24">
            rmoveto
            55 hlineto
            95 123 rlineto
            5 -78 vlineto
            -72 -123 rlineto
            165 -5 rmoveto
            55 hlineto
            95 123 rlineto
            5 -78 vlineto
            -72 -123 rlineto
            return
          </CharString>
          <CharString index="25">
            hlineto
            56 182 rlineto
            253 hlineto
            return
          </CharString>
          <CharString index="26">
            80 21 -21 236 80 302 78 return
          </CharString>
          <CharString index="27">
            rmoveto
            190 -9 72 -175 -79 -48 -16 -36 -29 vhcurveto
            37 -27 -46 15 -78 hhcurveto
            -59 -57 -6 -8 -49 hvcurveto
            -70 vlineto
            5 31 69 6 38 hhcurveto
            112 20 -8 -116 hvcurveto
            -28 vlineto
            -44 -63 1 -47 hhcurveto
            -111 -33 -41 -113 -113 51 -35 108 61 74 8 65 36 hvcurveto
            -54 27 53 -19 96 hhcurveto
            56 68 6 8 37 hvcurveto
            70 vlineto
            -6 -46 -58 -5 -40 hhcurveto
            -132 -8 31 131 hvcurveto
            301 hlineto
            -186 218 rmoveto
            84 19 -16 -132 hvcurveto
            -4 -218 vlineto
            125 11 27 104 vhcurveto
            -200 -238 rmoveto
            -43 -6 -30 -13 -24 vhcurveto
            -38 -19 -37 -7 -44 hhcurveto
            -80 -16 13 69 70 15 10 65 hvcurveto
            135 hlineto
            endchar
          </CharString>
          <CharString index="28">
            -284 -714 rmoveto
            -144 -11 7 267 267 11 7 144 144 12 -7 -267 -68 callsubr
            hvcurveto
            return
          </CharString>
          <CharString index="29">
            -39 callgsubr
            endchar
          </CharString>
          <CharString index="30">
            61 21 -67 callgsubr
            return
          </CharString>
          <CharString index="31">
            -42 callgsubr
            64 79 callgsubr
            -90 vlineto
            -38 -136 rlineto
            return
          </CharString>
          <CharString index="32">
            -888 -103 callgsubr
            return
          </CharString>
          <CharString index="33">
            90 0 58 -58 77 541 78 hstemhm
            65 91 -90 201 88 201 -90 91 hintmask 00000000
            hintmask 01101010
            66 hmoveto
            201 72 hlineto
            hintmask 01110010
            -100 17 -11 61 210 vvcurveto
            232 10 26 145 144 11 -27 -231 -210 -11 -61 -100 -17 vhcurveto
            hintmask 01110100
            -72 201 77 -7 vlineto
            hintmask 10110100
            -34 -5 -34 -8 -34 -6 rrcurveto
            6 vlineto
            hintmask 10110010
            90 37 20 102 164 vvcurveto
            249 -16 80 -230 -231 -15 -80 -249 -164 19 -102 91 -37 vhcurveto
            -6 vlineto
            hintmask 01101010
            -34 6 -34 8 -34 5 rrcurveto
            -7 hlineto
            endchar
          </CharString>
          <CharString index="34">
            6 -30 -37 2 -45 hhcurveto
            -44 callsubr
            234 13 61 291 hvcurveto
            return
          </CharString>
          <CharString index="35">
            85 234 hlineto
            138 32 61 120 vhcurveto
            85 vlineto
            -74 -53 -20 -83 -23 hvcurveto
            -6 hlineto
            return
          </CharString>
          <CharString index="36">
            87 688 -87 -500 -4 hlineto
            -283 500 rlineto
            -93 -688 87 hlineto
            return
          </CharString>
          <CharString index="37">
            11 -34 -35 12 -35 hhcurveto
            -64 -6 -36 -79 hvcurveto
            50 hlineto
            39 2 14 25 vhcurveto
            return
          </CharString>
          <CharString index="38">
            -37 -8 -56 callsubr
            return
          </CharString>
          <CharString index="39">
            -267 -12 -7 -144 return
          </CharString>
          <CharString index="40">
            rmoveto
            127 40 11 134 hvcurveto
            562 -86 -585 -5 callsubr
            endchar
          </CharString>
          <CharString index="41">
            rmoveto
            -47 callgsubr
            64 vlineto
            return
          </CharString>
          <CharString index="42">
            136 rlineto
            return
          </CharString>
          <CharString index="43">
            -5 -8 -28 callgsubr
            return
          </CharString>
          <CharString index="44">
            -80 callgsubr
            hintmask 0111110010000000
            -107 callsubr
            hintmask 1011110010000000
            -102 callsubr
            endchar
          </CharString>
          <CharString index="45">
            rmoveto
            532 97 vlineto
            160 13 -6 -260 -260 -11 -6 -162 hvcurveto
            return
          </CharString>
          <CharString index="46">
            78 231 78 223 78 return
          </CharString>
          <CharString index="47">
            -21 -25 callgsubr
            return
          </CharString>
          <CharString index="48">
            -94 0 100 518 78 hstemhm
            118 97 -89 80 83 90 hintmask 11011000
            126 198 rmoveto
            80 62 hlineto
            53 4 5 65 27 vhcurveto
            26 11 rlineto
            63 27 15 55 86 vvcurveto
            123 -49 49 -132 -47 -70 -6 -10 -50 vhcurveto
            -73 vlineto
            6 46 58 5 33 hhcurveto
            93 28 -13 -88 -79 -13 -13 -55 -23 hvcurveto
            -27 -11 rlineto
            -47 -21 -21 -14 -76 vvcurveto
            hintmask 11101000
            -8 -280 -85 callsubr
          </CharString>
          <CharString index="49">
            -23 -51 callsubr
            return
          </CharString>
          <CharString index="50">
            83 vstem
            223 -8 -98 callsubr
            return
          </CharString>
          <CharString index="51">
            73 159 66 155 73 return
          </CharString>
          <CharString index="52">
            rmoveto
            -50 hlineto
            -39 -1 -14 -25 -23 -26 10 9 -27 vhcurveto
            hintmask 10110010
            11 -34 -35 12 -35 hhcurveto
            -64 -6 -37 -78 hvcurveto
            50 hlineto
            39 2 13 25 23 26 -9 -9 28 vhcurveto
            hintmask 11001010
            -12 33 35 -11 35 hhcurveto
            63 6 36 79 hvcurveto
            hintmask 11001100
            -37 -181 -89 callsubr
          </CharString>
          <CharString index="53">
            rmoveto
            54 hlineto
            20 1 3 36 12 vhcurveto
            20 7 rlineto
            45 15 9 18 41 vvcurveto
            65 -39 14 -82 -30 -45 -4 -4 -30 vhcurveto
            -50 25 callsubr
            25 hhcurveto
            54 15 -2 -30 -21 -7 -6 -36 -11 hvcurveto
            -18 -6 rlineto
            -32 -11 -11 -7 -37 vvcurveto
            -170 24 callgsubr
          </CharString>
          <CharString index="54">
            21 2 2 35 12 vhcurveto
            return
          </CharString>
          <CharString index="55">
            rmoveto
            52 12 3 29 56 vvcurveto
            73 -6 30 -114 -112 -6 -30 -73 -56 3 -30 52 -11 vhcurveto
            -210 -678 117 callgsubr
            57 -182 rlineto
            93 hlineto
            -276 832 rmoveto
            63 1 -13 -44 -45 -1 -12 -63 -60 -2 12 45 44 2 13 60 hvcurveto
            -105 -572 rmoveto
            -20 callsubr
            6 hlineto
            101 -333 rlineto
            endchar
          </CharString>
          <CharString index="56">
            -8 72 382 72 return
          </CharString>
          <CharString index="57">
            -3 0 274 -253 -21 197 77 414 -20 return
          </CharString>
          <CharString index="58">
            1 220 rmoveto
            -60 -14 9 48 49 13 9 61 60 12 -9 -49 -48 -13 -9 -59 hvcurveto
            return
          </CharString>
          <CharString index="59">
            91 callgsubr
            -510 85 265 hlineto
            return
          </CharString>
          <CharString index="60">
            87 -37 callgsubr
            return
          </CharString>
          <CharString index="61">
            91 vstem
            523 170 -95 callsubr
            return
          </CharString>
          <CharString index="62">
            64 0 78 233 74 225 10 callsubr
            -303 -61 -74 61 hlineto
            187 -233 rmoveto
            -97 233 101 74 -101 225 97 hlineto
            160 13 -6 -260 -260 -11 -6 -162 hvcurveto
            endchar
          </CharString>
          <CharString index="63">
            -233 -13 -61 -291 -68 callgsubr
            return
          </CharString>
          <CharString index="64">
            63 -8 callsubr
            return
          </CharString>
          <CharString index="65">
            2 callgsubr
            hlineto
            556 -688 rmoveto
            -81 callgsubr
            -466 4 -62 callsubr
            endchar
          </CharString>
          <CharString index="66">
            rmoveto
            -70 callgsubr
            return
          </CharString>
          <CharString index="67">
            -4 -8 77 -69 69 441 -20 58 callgsubr
            hintmask 10111000
            370 510 rmoveto
            -265 vlineto
            -113 -4 -63 -107 -88 -14 14 136 vhcurveto
            291 -85 -699 85 195 vlineto
            -10 20 23 -4 25 hhcurveto
            86 39 31 47 19 hvcurveto
            6 hlineto
            hintmask 01111000
            4 -70 rlineto
            76 510 hlineto
            endchar
          </CharString>
          <CharString index="68">
            -86 rmoveto
            -188 -14 -75 -189 -197 22 -65 186 57 68 6 8 37 hvcurveto
            70 vlineto
            -6 -47 -58 -5 -40 hhcurveto
            -132 -8 29 130 hvcurveto
            302 31 hlineto
            191 -9 72 -176 vhcurveto
            -2 -73 46 callsubr
          </CharString>
          <CharString index="69">
            -292 -107 callgsubr
            return
          </CharString>
          <CharString index="70">
            90 vstem
            541 hmoveto
            -94 callsubr
            return
          </CharString>
          <CharString index="71">
            46 rmoveto
            99 62 67 110 126 vvcurveto
            125 -67 111 -99 62 vhcurveto
            -32 -51 rlineto
            82 -51 56 -92 -104 vvcurveto
            -105 -55 -91 -83 -52 vhcurveto
            -31 51 rmoveto
            65 41 44 73 83 vvcurveto
            83 -44 73 -66 41 vhcurveto
            -32 -51 rlineto
            49 -31 33 -54 -61 vvcurveto
            -62 -33 -53 -48 -31 vhcurveto
            return
          </CharString>
          <CharString index="72">
            103 317 rmoveto
            62 371 -44 hlineto
            -82 -46 rlineto
            -57 vlineto
            64 30 rlineto
            return
          </CharString>
          <CharString index="73">
            -302 -33 callsubr
            return
          </CharString>
          <CharString index="74">
            21 -60 callsubr
            return
          </CharString>
          <CharString index="75">
            -21 0 callsubr
            return
          </CharString>
          <CharString index="76">
            325 78 -248 hlineto
            -51 230 rlineto
            260 78 -274 hlineto
            -49 224 rlineto
            362 78 -497 hlineto
            -284 -688 rlineto
            90 hlineto
            74 182 rlineto
            253 hlineto
            -83 412 rmoveto
            69 -334 rlineto
            -209 hlineto
            135 334 rlineto
            endchar
          </CharString>
          <CharString index="77">
            196 hlineto
            242 12 58 286 return
          </CharString>
          <CharString index="78">
            -33 callgsubr
            endchar
          </CharString>
          <CharString index="79">
            -8 -2 callgsubr
            return
          </CharString>
          <CharString index="80">
            85 438 112 72 -112 91 -59 callgsubr
            return
          </CharString>
          <CharString index="81">
            743 rmoveto
            -94 callgsubr
            hintmask 01110000
            -101 callsubr
            hintmask 10110000
            -93 callgsubr
            endchar
          </CharString>
          <CharString index="82">
            -187 -13 -52 -211 -63 callgsubr
            return
          </CharString>
          <CharString index="83">
            -20 callgsubr
            vstem
            return
          </CharString>
          <CharString index="84">
            rmoveto
            -94 callgsubr
            hintmask 11011110
            -101 callsubr
            hintmask 11101110
            -93 callgsubr
            return
          </CharString>
          <CharString index="85">
            rmoveto
            53 hlineto
            -53 callsubr
            return
          </CharString>
          <CharString index="86">
            rmoveto
            71 0 -31 -58 hvcurveto
            56 hlineto
            83 -7 59 -120 -120 -9 -59 -83 vhcurveto
            20 callgsubr
            vhcurveto
            return
          </CharString>
          <CharString index="87">
            102 333 rlineto
            return
          </CharString>
          <CharString index="88">
            -264 39 68 95 return
          </CharString>
          <CharString index="89">
            hintmask 0000000000000000
            return
          </CharString>
          <CharString index="90">
            vstem
            358 hmoveto
            96 hlineto
            -172 264 169 246 rlineto
            -92 hlineto
            -147 -216 rlineto
            -55 return
          </CharString>
          <CharString index="91">
            67 -8 78 235 77 236 78 return
          </CharString>
          <CharString index="92">
            hstem
            -269 -52 callgsubr
            vstem
            return
          </CharString>
          <CharString index="93">
            76 90 280 90 return
          </CharString>
          <CharString index="94">
            50 226 50 return
          </CharString>
          <CharString index="95">
            85 vstem
            370 hmoveto
            85 323 hlineto
            95 callsubr
            -85 -38 -30 -42 -18 vhcurveto
            -6 297 -85 -743 70 callgsubr
            return
          </CharString>
          <CharString index="96">
            -42 -10 -22 -17 -64 vvcurveto
            -72 26 -33 111 vhcurveto
            return
          </CharString>
          <CharString index="97">
            -21 512 176 0 -20 return
          </CharString>
          <CharString index="98">
            37 78 hvcurveto
            return
          </CharString>
          <CharString index="99">
            -21 62 hstemhm
            return
          </CharString>
          <CharString index="100">
            rmoveto
            9 callsubr
            -133 rlineto
            return
          </CharString>
          <CharString index="101">
            320 0 117 427 144 0 -20 return
          </CharString>
          <CharString index="102">
            vlineto
            -4 callsubr
            return
          </CharString>
          <CharString index="103">
            -42 -6 -13 -75 vhcurveto
            return
          </CharString>
          <CharString index="104">
            85 213 85 return
          </CharString>
          <CharString index="105">
            78 hstem
            63 91 265 90 vstem
            287 -8 rmoveto
            216 6 59 293 293 -5 59 -217 -217 -7 -59 -293 -293 7 -59 217 hvcurveto
            return
          </CharString>
          <CharString index="106">
            rmoveto
            22 27 -10 -9 28 hvcurveto
            return
          </CharString>
          <CharString index="107">
            688 -20 return
          </CharString>
          <CharString index="108">
            vstem
            459 hmoveto
            101 hlineto
            -218 355 215 333 rlineto
            -97 hlineto
            -192 -300 rlineto
            -95 300 -91 -688 91 310 95 hlineto
            return
          </CharString>
          <CharString index="109">
            438 104 72 -104 148 -85 -148 -88 -72 88 return
          </CharString>
          <CharString index="110">
            rmoveto
            32 51 rlineto
            -14 9 -10 16 20 vvcurveto
            20 10 16 15 9 vhcurveto
            -32 51 rlineto
            -32 -20 -21 -35 -41 vvcurveto
            -42 21 -34 31 -20 vhcurveto
            return
          </CharString>
          <CharString index="111">
            189 0 106 260 144 0 -20 return
          </CharString>
          <CharString index="112">
            rmoveto
            97 100 -97 hlineto
            -1 -688 rmoveto
            100 95 hlineto
            78 -17 250 -2 67 vhcurveto
            -63 hlineto
            -2 -67 -16 -250 -78 vvcurveto
            endchar
          </CharString>
          <CharString index="113">
            vstem
            82 hmoveto
            42 callgsubr
            return
          </CharString>
          <CharString index="114">
            -83 callgsubr
            hintmask 11111001
            return
          </CharString>
          <CharString index="115">
            31 20 21 34 42 vvcurveto
            41 -21 35 -32 20 vhcurveto
            -32 -51 rlineto
            15 -9 10 -16 -20 vvcurveto
            -20 -10 -16 -14 -9 vhcurveto
            endchar
          </CharString>
          <CharString index="116">
            89 133 rlineto
            6 -59 vlineto
            -75 -94 -75 94 rlineto
            -59 -6 hlineto
            89 return
          </CharString>
          <CharString index="117">
            78 hstem
            82 90 270 90 vstem
            82 hmoveto
            2 callgsubr
            return
          </CharString>
          <CharString index="118">
            -65 -83 -7 -10 -51 vhcurveto
            -73 vlineto
            7 59 73 5 41 hhcurveto
            109 29 -14 -94 -64 -10 -22 -58 -28 hvcurveto
            -52 -26 return
          </CharString>
          <CharString index="119">
            rmoveto
            56 hlineto
            57 2 32 71 71 0 -32 -57 vhcurveto
            56 hlineto
            83 -7 59 -120 -120 -9 -59 -83 vhcurveto
            endchar
          </CharString>
          <CharString index="120">
            -618 -80 callgsubr
            return
          </CharString>
          <CharString index="121">
            -751 -80 callgsubr
            return
          </CharString>
          <CharString index="122">
            58 21 50 callsubr
            return
          </CharString>
          <CharString index="123">
            -201 21 -21 433 85 -8 -20 return
          </CharString>
          <CharString index="124">
            -37 callgsubr
            51 141 hstem
            return
          </CharString>
          <CharString index="125">
            hstem
            -14 callgsubr
            vstem
            return
          </CharString>
          <CharString index="126">
            286 -12 58 -242 return
          </CharString>
          <CharString index="127">
            hstemhm
            26 callgsubr
            return
          </CharString>
          <CharString index="128">
            99 -197 67 151 30 callsubr
            hintmask 11011100
            462 688 rmoveto
            return
          </CharString>
          <CharString index="129">
            vmoveto
            -99 callsubr
            return
          </CharString>
          <CharString index="130">
            78 hvcurveto
            -50 hlineto
            -39 -3 -13 -27 -24 -29 9 9 -28 vhcurveto
            hintmask 01011100
            11 -36 -37 12 -37 hhcurveto
            -68 -7 -36 return
          </CharString>
          <CharString index="131">
            rmoveto
            61 hlineto
            114 203 -114 204 rlineto
            -61 hlineto
            return
          </CharString>
          <CharString index="132">
            vlineto
            3 32 39 2 return
          </CharString>
          <CharString index="133">
            94 vstem
            55 472 rmoveto
            94 96 -37 17 hlineto
            51 8 13 47 vhcurveto
            39 vlineto
            -97 -15 -27 -108 hvcurveto
            return
          </CharString>
          <CharString index="134">
            90 vstem
            458 hmoveto
            47 callsubr
            return
          </CharString>
          <CharString index="135">
            hstemhm
            54 85 224 85 return
          </CharString>
          <CharString index="136">
            53 hstemhm
            76 90 12 -52 callgsubr
            12 90 hintmask 00000000
            return
          </CharString>
          <CharString index="137">
            62 callgsubr
            293 87 return
          </CharString>
          <CharString index="138">
            97 callgsubr
            -23 -13 callsubr
            -23 90 return
          </CharString>
          <CharString index="139">
            111 callgsubr
            470 40 return
          </CharString>
          <CharString index="140">
            -126 -8 73 380 73 return
          </CharString>
          <CharString index="141">
            vvcurveto
            -43 22 -35 72 12 12 1 1 16 vhcurveto
            53 vlineto
            -6 -6 -1 -4 hhcurveto
            -35 -11 18 23 return
          </CharString>
          <CharString index="142">
            rmoveto
            -40 vlineto
            100 16 27 112 hvcurveto
            84 -98 -100 38 -17 vlineto
            -53 -8 -13 -48 vhcurveto
            endchar
          </CharString>
          <CharString index="143">
            -197 247 77 hstem
            57 221 vstem
            57 247 rmoveto
            221 77 -221 hlineto
            endchar
          </CharString>
          <CharString index="144">
            51 119 50 115 52 hstemhm
            37 33 callgsubr
            hintmask 11110010
            174 return
          </CharString>
          <CharString index="145">
            103 9 32 136 135 -9 33 -103 -103 -9 -33 -135 -136 9 -32 103 hvcurveto
            return
          </CharString>
          <CharString index="146">
            766 rmoveto
            39 vlineto
            -97 -14 -25 -98 hvcurveto
            -79 94 94 -38 17 vlineto
            41 8 11 47 vhcurveto
            return
          </CharString>
          <CharString index="147">
            80 89 callsubr
            236 80 302 78 return
          </CharString>
          <CharString index="148">
            rmoveto
            53 hlineto
            98 callgsubr
            return
          </CharString>
          <CharString index="149">
            380 70 -380 hlineto
            return
          </CharString>
          <CharString index="150">
            53 155 62 -21 63 hstemhm
            -302 50 -17 -52 callgsubr
            -13 50 hintmask 11001010
            24 return
          </CharString>
          <CharString index="151">
            rmoveto
            65 45 45 65 65 -45 45 -65 -65 -45 -45 -65 -65 45 -45 65 hvcurveto
            60 vmoveto
            return
          </CharString>
          <CharString index="152">
            rmoveto
            70 156 156 70 -156 155 -70 -155 -154 -70 154 hlineto
            return
          </CharString>
          <CharString index="153">
            rmoveto
            84 20 -16 -134 hvcurveto
            -5 -219 vlineto
            128 1 10 27 104 hhcurveto
            endchar
          </CharString>
          <CharString index="154">
            52 callsubr
            -301 -286 301 -90 -688 90 306 286 hlineto
            return
          </CharString>
          <CharString index="155">
            730 41 callsubr
            return
          </CharString>
          <CharString index="156">
            -21 273 77 260 78 return
          </CharString>
          <CharString index="157">
            -21 269 78 263 78 return
          </CharString>
          <CharString index="158">
            -208 36 -54 129 vhcurveto
            return
          </CharString>
          <CharString index="159">
            90 688 -90 return
          </CharString>
          <CharString index="160">
            -117 8 -8 171 rlineto
            -56 hlineto
            -8 -171 -115 -8 rlineto
            -55 vlineto
            return
          </CharString>
          <CharString index="161">
            -27 -14 rrcurveto
            -43 -22 -2 -22 -77 vvcurveto
            -51 233 56 -173 vlineto
            endchar
          </CharString>
          <CharString index="162">
            -190 rmoveto
            82 hlineto
            40 193 rlineto
            5 -58 vlineto
            -64 -193 rlineto
            endchar
          </CharString>
          <CharString index="163">
            139 hstem
            -281 268 vstem
            return
          </CharString>
          <CharString index="164">
            141 hstem
            -181 167 vstem
            return
          </CharString>
          <CharString index="165">
            0 60 568 60 hstem
            return
          </CharString>
          <CharString index="166">
            hstemhm
            44 84 214 85 return
          </CharString>
          <CharString index="167">
            53 hstemhm
            76 90 89 53 51 61 26 90 return
          </CharString>
          <CharString index="168">
            52 hstemhm
            71 85 55 53 51 61 -7 85 return
          </CharString>
          <CharString index="169">
            -2 callgsubr
            104 callsubr
            return
          </CharString>
          <CharString index="170">
            -43 callsubr
            44 84 -42 50 206 85 -65 120 callgsubr
            return
          </CharString>
          <CharString index="171">
            -27 -16 -52 -90 vvcurveto
            hintmask 11110000
            -126 50 -46 130 vhcurveto
            endchar
          </CharString>
          <CharString index="172">
            hvcurveto
            73 vlineto
            -6 -46 -58 -5 -34 hhcurveto
            -93 -27 14 87 80 13 12 return
          </CharString>
          <CharString index="173">
            hintmask 00000000
            hintmask 11111100
            return
          </CharString>
          <CharString index="174">
            53 hstemhm
            63 91 27 -52 callgsubr
            28 91 89 callgsubr
            return
          </CharString>
          <CharString index="175">
            53 hstemhm
            71 85 -21 -52 callgsubr
            -22 85 hintmask 00000000
            hintmask 10110110
            return
          </CharString>
          <CharString index="176">
            876 rmoveto
            -94 callgsubr
            return
          </CharString>
          <CharString index="177">
            hmoveto
            90 158 85 78 -85 239 -70 hlineto
            -19 -239 rlineto
            return
          </CharString>
          <CharString index="178">
            77 callsubr
            61 139 hstem
            82 90 270 90 vstem
            return
          </CharString>
          <CharString index="179">
            61 378 -45 hlineto
            -87 -46 rlineto
            -55 vlineto
            71 32 rlineto
            endchar
          </CharString>
          <CharString index="180">
            -4 51 -26 -21 166 50 return
          </CharString>
          <CharString index="181">
            hstem
            52 callgsubr
            vstem
            return
          </CharString>
          <CharString index="182">
            hstemhm
            82 87 293 87 return
          </CharString>
          <CharString index="183">
            80 -8 78 577 41 return
          </CharString>
          <CharString index="184">
            0 78 532 78 return
          </CharString>
          <CharString index="185">
            hstem
            66 380 vstem
            return
          </CharString>
          <CharString index="186">
            18 hvcurveto
            4 vlineto
            hintmask 11101100
            71 16 33 46 101 vvcurveto
            125 return
          </CharString>
          <CharString index="187">
            15 1 1 9 vhcurveto
            53 vlineto
            -5 -6 -1 -6 hhcurveto
            -34 -11 return
          </CharString>
          <CharString index="188">
            hstem
            29 82 vstem
            29 282 rmoveto
            59 hlineto
            23 231 rlineto
            return
          </CharString>
          <CharString index="189">
            -15 -117 rlineto
            -113 hlineto
            121 243 rlineto
            -65 hlineto
            return
          </CharString>
          <CharString index="190">
            -4 callsubr
            -67 vlineto
            128 40 11 134 hvcurveto
            return
          </CharString>
          <CharString index="191">
            -337 442 246 hstemhm
            57 82 hintmask 00000000
            hintmask 11000000
            return
          </CharString>
          <CharString index="192">
            14 76 vvcurveto
            82 -80 -62 vlineto
            -53 -4 -5 -50 -20 vhcurveto
            return
          </CharString>
          <CharString index="193">
            5 46 hhcurveto
            110 41 -12 -104 -96 -45 -19 -58 hvcurveto
            return
          </CharString>
          <CharString index="194">
            hhcurveto
            128 35 57 207 208 -36 54 -129 return
          </CharString>
          <CharString index="195">
            205 -145 143 -207 return
          </CharString>
          <CharString index="196">
            -9 callgsubr
            83 -21 return
          </CharString>
          <CharString index="197">
            60 60 60 60 60 return
          </CharString>
          <CharString index="198">
            512 4 vlineto
            return
          </CharString>
          <CharString index="199">
            vlineto
            -61 -185 rlineto
            -5 82 vlineto
            39 190 rlineto
            return
          </CharString>
          <CharString index="200">
            21 callgsubr
            endchar
          </CharString>
          <CharString index="201">
            hintmask 00000000
            hintmask 11110110
            return
          </CharString>
          <CharString index="202">
            134 -20 61 -131 return
          </CharString>
          <CharString index="203">
            47 vvcurveto
            72 -31 31 -94 return
          </CharString>
          <CharString index="204">
            84 141 hstem
            54 85 return
          </CharString>
          <CharString index="205">
            vhcurveto
            -61 -183 rlineto
            -5 82 vlineto
            hintmask 10110000
            38 return
          </CharString>
          <CharString index="206">
            -8 62 callsubr
            return
          </CharString>
          <CharString index="207">
            -12 -68 -195 -206 12 -56 188 hvcurveto
            return
          </CharString>
          <CharString index="208">
            -278 -161 904 hstem
            88 78 vstem
            88 return
          </CharString>
          <CharString index="209">
            -44 -49 -24 -7 -48 -20 -36 3 4 -42 hvcurveto
            return
          </CharString>
          <CharString index="210">
            -120 -249 rlineto
            -46 177 vlineto
            endchar
          </CharString>
          <CharString index="211">
            78 53 139 hstem
            63 91 return
          </CharString>
          <CharString index="212">
            hstem
            63 90 296 89 vstem
            return
          </CharString>
          <CharString index="213">
            hstem
            26 callgsubr
            vstem
            return
          </CharString>
          <CharString index="214">
            410 rmoveto
            97 100 -97 hlineto
            return
          </CharString>
          <CharString index="215">
            90 -18 callsubr
            return
          </CharString>
          <CharString index="216">
            -21 -8 -6 -35 -11 return
          </CharString>
          <CharString index="217">
            87 -28 callsubr
            return
          </CharString>
          <CharString index="218">
            hstem
            72 86 vstem
            return
          </CharString>
          <CharString index="219">
            rmoveto
            -99 -14 19 return
          </CharString>
          <CharString index="220">
            -16 -55 hhcurveto
            endchar
          </CharString>
          <CharString index="221">
            hstem
            44 83 215 85 218 83 vstem
            return
          </CharString>
          <CharString index="222">
            251 -8 73 162 66 152 73 return
          </CharString>
          <CharString index="223">
            254 -8 rmoveto
            193 8 57 221 return
          </CharString>
          <CharString index="224">
            -23 -8 72 -43 -21 446 72 -8 -20 return
          </CharString>
          <CharString index="225">
            -8 78 266 78 204 78 hstem
            63 return
          </CharString>
          <CharString index="226">
            hintmask 00000000
            hintmask 11110100
            return
          </CharString>
        <CharString name=".notdef">
          -32 0 50 49 70 383 50 48 50 hstemhm
          0 50 49 53 73 60 -56 53 57 54 57 50 hintmask 1111110111000000
          0 vmoveto
          500 700 -500 hlineto
          450 -50 rmoveto
          -600 -400 600 vlineto
          179 -435 rmoveto
          53 53 hlineto
          33 21 18 23 19 vhcurveto
          30 26 37 36 67 vvcurveto
          12 -3 123 -140 -140 -11 -124 -23 -13 3 -13 1 -5 vhcurveto
          49 28 hlineto
          23 8 77 90 77 12 -59 -28 -51 -28 -24 -28 -23 vhcurveto
          -28 -23 -26 -23 -43 vvcurveto
          hintmask 1111111011000000
          -4 -179 rmoveto
          60 70 -60 hlineto
          endchar
        </CharString>
        <CharString name="A">
          -77 callsubr
          hstem
          22 549 vstem
          478 hmoveto
          -104 callgsubr
          endchar
        </CharString>
        <CharString name="A.ss01">
          -81 callsubr
          -24 callsubr
          446 hmoveto
          -106 callgsubr
          endchar
        </CharString>
        <CharString name="AE">
          101 callgsubr
          hstem
          -7 781 vstem
          449 hmoveto
          -31 callsubr
        </CharString>
        <CharString name="AEacute">
          101 callgsubr
          59 141 hstem
          -7 781 vstem
          370 747 -99 callgsubr
          79 -752 rmoveto
          -31 callsubr
        </CharString>
        <CharString name="Aacute">
          -77 callsubr
          62 141 hstem
          22 549 vstem
          246 750 -99 callgsubr
          232 -755 -100 callsubr
        </CharString>
        <CharString name="Aacute.ss01">
          -81 callsubr
          54 141 -24 callsubr
          265 750 -99 callgsubr
          181 -755 rmoveto
          -106 callgsubr
          endchar
        </CharString>
        <CharString name="Abreve">
          -77 callsubr
          58 53 hstem
          168 -52 callgsubr
          vstem
          424 888 -78 callsubr
        </CharString>
        <CharString name="Abreve.ss01">
          -81 callsubr
          50 29 callsubr
          hintmask 11111111
          434 7 callsubr
          12 -888 rmoveto
          -106 callgsubr
          endchar
        </CharString>
        <CharString name="Acircumflex">
          -77 callsubr
          62 139 hstem
          22 549 vstem
          161 750 -107 callgsubr
          317 -756 -100 callsubr
        </CharString>
        <CharString name="Acircumflex.ss01">
          -81 callsubr
          54 139 -24 callsubr
          173 750 -107 callgsubr
          273 -756 rmoveto
          -106 callgsubr
          endchar
        </CharString>
        <CharString name="Adieresis">
          -77 callsubr
          88 82 hstem
          165 79 104 79 vstem
          165 776 -91 callsubr
          130 -858 -100 callsubr
        </CharString>
        <CharString name="Adieresis.ss01">
          -81 callsubr
          78 82 hstemhm
          76 90 12 79 104 79 6 90 89 callgsubr
          178 774 -91 callsubr
          hintmask 11111001
          85 -856 rmoveto
          -106 callgsubr
          endchar
        </CharString>
        <CharString name="Agrave">
          -77 callsubr
          62 141 hstem
          22 549 vstem
          280 750 -91 callgsubr
          302 -886 -100 callsubr
        </CharString>
        <CharString name="Agrave.ss01">
          -81 callsubr
          54 141 -24 callsubr
          286 750 -91 callgsubr
          264 -886 rmoveto
          -106 callgsubr
          endchar
        </CharString>
        <CharString name="Amacron">
          -77 callsubr
          122 77 hstem
          186 222 vstem
          186 810 -56 callgsubr
          292 -887 -100 callsubr
        </CharString>
        <CharString name="Amacron.ss01">
          -81 callsubr
          114 77 hstemhm
          76 90 30 222 28 90 89 callgsubr
          196 810 -56 callgsubr
          hintmask 11111010
          250 -887 rmoveto
          -106 callgsubr
          endchar
        </CharString>
        <CharString name="Aogonek">
          60 -196 54 163 -67 callgsubr
          hstem
          419 72 vstem
          491 -101 rmoveto
          34 31 44 26 23 vhcurveto
          22 hlineto
          -215 688 rlineto
          -119 hlineto
          -215 -688 rlineto
          91 -82 callsubr
          56 -180 rlineto
          -34 -35 -24 -46 -39 34 callsubr
          hvcurveto
          -301 361 rmoveto
          -20 callsubr
          5 hlineto
          101 -333 rlineto
          endchar
        </CharString>
        <CharString name="Aogonek.ss01">
          80 -196 55 162 -21 236 80 302 78 hstemhm
          76 90 222 72 -14 90 hintmask 11111010
          516 hmoveto
          20 387 hlineto
          246 -20 63 -210 -210 -20 -63 -246 vhcurveto
          -387 90 236 280 -234 vlineto
          hintmask 11111100
          -34 -35 -24 -46 -39 vvcurveto
          -43 22 -35 72 vhcurveto
          hintmask 11111010
          13 13 1 1 14 hvcurveto
          54 vlineto
          hintmask 11111100
          -1 -7 -5 0 -4 hhcurveto
          -35 -11 17 23 hvcurveto
          hintmask 11111010
          34 31 44 25 23 vhcurveto
          -350 316 rmoveto
          106 vlineto
          164 7 32 133 133 7 -32 -164 vhcurveto
          -106 vlineto
          endchar
        </CharString>
        <CharString name="Aring">
          61 21 -19 callgsubr
          572 46 hstem
          177 56 126 56 vstem
          360 678 -52 callsubr
        </CharString>
        <CharString name="Aring.ss01">
          -81 callsubr
          43 112 callgsubr
          hstemhm
          76 90 24 113 callgsubr
          19 108 callsubr
          hintmask 1111111110000000
          307 739 -86 callgsubr
          hintmask 1111110010000000
          139 -783 rmoveto
          -106 callgsubr
          endchar
        </CharString>
        <CharString name="Aringacute">
          61 21 -19 callgsubr
          572 46 59 141 hstem
          177 56 126 56 vstem
          423 1073 -66 callsubr
          40 -259 -52 callsubr
        </CharString>
        <CharString name="Aringacute.ss01">
          -81 callsubr
          26 112 callgsubr
          29 141 hstemhm
          76 90 22 113 callgsubr
          21 108 callsubr
          hintmask 1111111111000000
          269 956 -99 callgsubr
          36 -239 rmoveto
          113 7 29 73 hvcurveto
          hintmask 1110101111000000
          73 -7 30 -113 -111 -6 -30 -73 vhcurveto
          hintmask 1111111111000000
          -73 6 -29 111 vhcurveto
          44 vmoveto
          -60 -2 13 45 hvcurveto
          hintmask 1110101111000000
          45 2 13 60 63 1 -13 -45 vhcurveto
          hintmask 1111111111000000
          -45 -1 -13 -63 vhcurveto
          hintmask 1110101001000000
          141 -766 rmoveto
          -106 callgsubr
          endchar
        </CharString>
        <CharString name="Atilde">
          -77 callsubr
          73 -43 callsubr
          133 73 callgsubr
          hintmask 11110110
          459 69 callsubr
          hintmask 11101110
          -101 callsubr
          hintmask 11110110
          -93 callgsubr
          hintmask 11101110
          19 -876 -100 callsubr
        </CharString>
        <CharString name="Atilde.ss01">
          -81 callsubr
          65 97 callgsubr
          -22 -13 callsubr
          -24 108 callsubr
          hintmask 1111010100000000
          470 69 callsubr
          hintmask 1110101010000000
          -101 callsubr
          hintmask 1111010100000000
          -93 callgsubr
          hintmask 1110110010000000
          -24 -876 rmoveto
          -106 callgsubr
          endchar
        </CharString>
        <CharString name="B">
          57 0 -61 callsubr
          hstemhm
          82 90 262 90 -84 91 hintmask 11110100
          82 hmoveto
          267 hlineto
          148 34 81 101 87 -23 62 -92 18 hvcurveto
          4 vlineto
          hintmask 11111000
          76 17 32 54 91 vvcurveto
          108 -45 65 -126 vhcurveto
          -271 hlineto
          243 -301 rmoveto
          -153 223 153 hlineto
          87 22 -30 -82 -77 -34 -34 -75 hvcurveto
          hintmask 11110100
          4 -309 rmoveto
          -157 231 157 hlineto
          83 28 -30 -86 -84 -24 -31 -87 hvcurveto
          endchar
        </CharString>
        <CharString name="C">
          -42 108 callgsubr
          91 vstem
          445 5 -92 callsubr
        </CharString>
        <CharString name="Cacute">
          -42 48 callgsubr
          vstem
          206 747 -99 callgsubr
          239 -747 -92 callsubr
        </CharString>
        <CharString name="Cacute.loclPLK">
          -42 48 callgsubr
          vstem
          206 747 -76 callsubr
          239 -747 -92 callsubr
        </CharString>
        <CharString name="Ccaron">
          86 callgsubr
          200 749 -98 callgsubr
          334 -877 -92 callsubr
        </CharString>
        <CharString name="Ccedilla">
          -42 -8 78 -51 -21 620 78 hstemhm
          63 91 hintmask 10110000
          326 70 rmoveto
          -159 -13 24 250 250 13 24 159 31 45 -4 -6 40 hvcurveto
          73 vlineto
          9 -32 -57 6 -48 hhcurveto
          -209 -33 -62 -290 hvcurveto
          hintmask 01110000
          -244 22 -82 129 -20 98 callsubr
          183 rlineto
          -1 10 11 0 11 hhcurveto
          46 59 6 7 35 hvcurveto
          75 vlineto
          -6 -33 -49 -4 -37 hhcurveto
          endchar
        </CharString>
        <CharString name="Ccircumflex">
          86 callgsubr
          111 749 -107 callgsubr
          334 -750 -92 callsubr
        </CharString>
        <CharString name="Cdotaccent">
          -42 -37 callgsubr
          97 82 hstem
          63 91 51 79 vstem
          205 0 callgsubr
          240 -870 -92 callsubr
        </CharString>
        <CharString name="D">
          64 0 78 532 78 hstem
          82 90 270 90 vstem
          82 hmoveto
          -49 callgsubr
          endchar
        </CharString>
        <CharString name="Dcaron">
          64 71 callsubr
          253 749 -98 callgsubr
          -82 -882 rmoveto
          -49 callgsubr
          endchar
        </CharString>
        <CharString name="Dcroat">
          -45 callsubr
        </CharString>
        <CharString name="E">
          -69 callgsubr
          hstem
          82 91 vstem
          82 hmoveto
          -93 callsubr
          endchar
        </CharString>
        <CharString name="Eacute">
          -69 callgsubr
          62 141 hstem
          82 91 vstem
          244 750 -99 callgsubr
          -162 -755 rmoveto
          -93 callsubr
          endchar
        </CharString>
        <CharString name="Ebreve">
          -69 callgsubr
          58 53 hstemhm
          82 91 -25 -52 callgsubr
          hintmask 11111010
          404 888 rmoveto
          -56 hlineto
          -58 -2 -31 -71 vhcurveto
          hintmask 11110110
          -71 0 31 58 hvcurveto
          -56 hlineto
          -83 7 -59 120 vhcurveto
          hintmask 11111010
          120 9 59 83 hvcurveto
          -322 -888 rmoveto
          -93 callsubr
          endchar
        </CharString>
        <CharString name="Ecaron">
          -69 callgsubr
          61 139 hstem
          82 91 vstem
          231 749 -98 callgsubr
          -60 -882 rmoveto
          -93 callsubr
          endchar
        </CharString>
        <CharString name="Ecircumflex">
          -69 callgsubr
          62 139 hstem
          82 91 vstem
          143 750 -107 callgsubr
          -61 -756 rmoveto
          -93 callsubr
          endchar
        </CharString>
        <CharString name="Edieresis">
          -69 callgsubr
          87 82 hstemhm
          82 91 -24 79 104 79 94 callsubr
          149 775 -91 callsubr
          hintmask 11111010
          -250 -857 rmoveto
          -93 callsubr
          endchar
        </CharString>
        <CharString name="Edotaccent">
          -69 callgsubr
          105 82 hstem
          82 91 63 79 vstem
          236 0 callgsubr
          -154 -875 rmoveto
          -93 callsubr
          endchar
        </CharString>
        <CharString name="Egrave">
          -69 callgsubr
          62 141 hstem
          82 91 vstem
          262 750 -91 callgsubr
          -76 -886 rmoveto
          -93 callsubr
          endchar
        </CharString>
        <CharString name="Emacron">
          -69 callgsubr
          122 77 hstemhm
          82 91 -8 222 119 callsubr
          165 810 -56 callgsubr
          hintmask 11111000
          -83 -887 rmoveto
          -93 callsubr
          endchar
        </CharString>
        <CharString name="Eng">
          21 callsubr
          -498 -4 vlineto
          -283 498 rlineto
          -93 -688 87 hlineto
          hintmask 11101100
          91 callsubr
          289 -510 rlineto
          -77 vlineto
          83 callsubr
          740 vlineto
          endchar
        </CharString>
        <CharString name="Eogonek">
          -13 -196 54 142 -61 callsubr
          hstem
          82 90 160 73 vstem
          427 99 callgsubr
          -6 -5 -1 -7 hhcurveto
          -33 -11 19 21 37 38 45 28 20 hvcurveto
          78 -299 231 260 78 -260 223 299 78 -389 -688 317 vlineto
          -39 -35 -28 -43 -43 vvcurveto
          -39 23 -36 72 vhcurveto
          endchar
        </CharString>
        <CharString name="Eth">
          -45 callsubr
        </CharString>
        <CharString name="Euro">
          2 -8 78 171 56 97 55 169 78 hstemhm
          106 91 -88 89 hintmask 11111000
          346 -8 rmoveto
          58 58 8 5 24 hvcurveto
          74 vlineto
          -4 -22 -49 -5 -48 hhcurveto
          -132 -30 16 155 -7 hvcurveto
          241 56 -242 97 242 55 hlineto
          hintmask 11110100
          -241 hlineto
          153 7 31 16 131 hhcurveto
          39 53 -5 -4 23 hvcurveto
          72 vlineto
          6 -20 -56 9 -60 hhcurveto
          -179 -48 -49 -198 -10 hvcurveto
          hintmask 11111000
          -74 -55 71 -97 -71 -56 73 hlineto
          -207 10 47 -42 181 hhcurveto
          endchar
        </CharString>
        <CharString name="F">
          -45 21 -21 293 78 239 78 hstem
          82 91 vstem
          82 hmoveto
          91 293 250 78 -250 239 281 78 -372 hlineto
          endchar
        </CharString>
        <CharString name="G">
          -16 callgsubr
          hstem
          63 91 271 87 vstem
          425 297 -95 callgsubr
          endchar
        </CharString>
        <CharString name="G.ss01">
          -16 callsubr
          105 callsubr
          318 -8 -96 callsubr
          endchar
        </CharString>
        <CharString name="G_tilde.loclGUA">
          -16 callgsubr
          77 -43 callsubr
          63 91 -26 -13 callsubr
          -29 87 -18 callsubr
          hintmask 1111010100000000
          454 69 callgsubr
          hintmask 1110101010000000
          -101 callsubr
          hintmask 1111010100000000
          -93 callgsubr
          hintmask 1110010010000000
          -29 -591 -95 callgsubr
          endchar
        </CharString>
        <CharString name="Gbreve">
          -16 callgsubr
          50 53 hstemhm
          63 91 9 -52 callgsubr
          6 87 89 callgsubr
          419 7 callsubr
          6 -591 -95 callgsubr
          endchar
        </CharString>
        <CharString name="Gbreve.ss01">
          -16 callsubr
          50 53 hstemhm
          63 90 18 -52 callgsubr
          22 89 hintmask 00000000
          hintmask 11111111
          427 7 callsubr
          -109 -896 -96 callsubr
          endchar
        </CharString>
        <CharString name="Gcaron">
          -16 callgsubr
          53 139 hstem
          63 91 271 87 vstem
          247 749 -98 callgsubr
          267 -585 -95 callgsubr
          endchar
        </CharString>
        <CharString name="Gcaron.ss01">
          -16 callsubr
          53 139 105 callsubr
          254 749 -98 callgsubr
          153 -890 -96 callsubr
          endchar
        </CharString>
        <CharString name="Gcircumflex">
          -16 callgsubr
          53 139 hstem
          63 91 271 87 vstem
          158 749 -107 callgsubr
          267 -458 -95 callgsubr
          endchar
        </CharString>
        <CharString name="Gcircumflex.ss01">
          -16 callsubr
          53 139 105 callsubr
          165 749 -107 callgsubr
          153 -763 -96 callsubr
          endchar
        </CharString>
        <CharString name="Gcommaaccent">
          51 -19 callsubr
          54 76 229 77 244 78 hstem
          63 91 99 94 78 87 vstem
          425 297 -95 callgsubr
          -65 -522 -87 callgsubr
        </CharString>
        <CharString name="Gcommaaccent.ss01">
          67 -19 callsubr
          54 78 235 77 236 78 hstem
          63 90 108 94 94 89 vstem
          318 -8 -96 callsubr
          -74 -217 -87 callgsubr
        </CharString>
        <CharString name="Gdotaccent">
          -16 callgsubr
          97 82 hstem
          63 91 98 79 94 87 vstem
          252 0 callgsubr
          173 -578 -95 callgsubr
          endchar
        </CharString>
        <CharString name="Gdotaccent.ss01">
          -16 callsubr
          97 82 hstem
          63 90 107 79 110 89 vstem
          260 0 callgsubr
          58 -883 -96 callsubr
          endchar
        </CharString>
        <CharString name="Gtilde.loclGUA.ss01">
          -16 callsubr
          77 -43 callsubr
          63 90 -17 -13 callsubr
          -13 89 -18 callsubr
          hintmask 1111010100000000
          462 69 callgsubr
          hintmask 1110101010000000
          -101 callsubr
          hintmask 1111010100000000
          -93 callgsubr
          hintmask 1110010010000000
          -144 -896 -96 callsubr
          endchar
        </CharString>
        <CharString name="H">
          98 21 -21 306 81 301 -20 hstem
          82 90 286 27 callsubr
          endchar
        </CharString>
        <CharString name="Hbar">
          98 21 -21 275 81 125 74 -74 207 hstemhm
          82 90 286 90 hintmask 00000000
          hintmask 11011100
          458 688 rmoveto
          hintmask 11101100
          -133 -286 vlineto
          hintmask 11011100
          133 -90 -688 90 275 286 -275 90 688 vlineto
          -376 -332 rmoveto
          hintmask 11101100
          125 286 -125 vlineto
          endchar
        </CharString>
        <CharString name="Hcircumflex">
          98 21 -21 306 81 301 -20 81 139 hstem
          82 90 286 90 vstem
          181 749 -107 callgsubr
          277 -755 rmoveto
          47 callsubr
          endchar
        </CharString>
        <CharString name="I">
          -24 callgsubr
          hstem
          84 90 vstem
          84 hmoveto
          -13 callgsubr
          endchar
        </CharString>
        <CharString name="IJ">
          36 0 74 -53 -32 callsubr
          hstemhm
          84 90 227 90 hintmask 01111000
          84 hmoveto
          -13 callgsubr
          hintmask 10111000
          197 -614 -74 callgsubr
        </CharString>
        <CharString name="Iacute">
          83 callgsubr
          83 750 -99 callgsubr
          1 -755 -29 callgsubr
        </CharString>
        <CharString name="Iacute_J.loclNLD">
          36 0 74 -53 -32 callsubr
          79 141 hstemhm
          84 90 227 90 hintmask 01111100
          89 747 -99 callgsubr
          318 -5 -99 callgsubr
          -323 -752 rmoveto
          -13 callgsubr
          hintmask 10111100
          197 -614 -74 callgsubr
        </CharString>
        <CharString name="Ibreve">
          -24 callgsubr
          78 53 hstemhm
          0 56 28 90 26 56 66 callsubr
          256 -83 callgsubr
          hintmask 11101000
          -172 -888 -29 callgsubr
        </CharString>
        <CharString name="Icircumflex">
          -24 callgsubr
          82 139 hstem
          84 90 vstem
          -6 750 -107 callgsubr
          90 -756 -29 callgsubr
        </CharString>
        <CharString name="Idieresis">
          -24 callgsubr
          107 82 hstemhm
          -2 79 7 90 7 79 119 callsubr
          -2 775 -91 callsubr
          hintmask 11101000
          -97 -857 -29 callgsubr
        </CharString>
        <CharString name="Idotaccent">
          -24 callgsubr
          125 82 hstemhm
          84 90 -85 79 hintmask 00000000
          hintmask 11101000
          89 0 callgsubr
          hintmask 11110000
          -5 -875 -29 callgsubr
        </CharString>
        <CharString name="Igrave">
          83 callgsubr
          114 750 -91 callgsubr
          74 -886 -29 callgsubr
        </CharString>
        <CharString name="Imacron">
          -24 callgsubr
          142 77 hstem
          84 90 vstem
          18 810 -56 callgsubr
          66 -887 -29 callgsubr
        </CharString>
        <CharString name="Iogonek">
          -275 -196 54 163 -32 callsubr
          hstemhm
          40 73 -29 90 hintmask 00000000
          hintmask 11110000
          135 99 callgsubr
          -17 -1 rlineto
          -35 -10 18 23 hvcurveto
          hintmask 11101000
          35 35 46 26 20 vhcurveto
          688 -90 -688 vlineto
          hintmask 11110000
          17 hlineto
          -35 -34 -26 -45 -39 vvcurveto
          -43 22 -35 73 vhcurveto
          endchar
        </CharString>
        <CharString name="Itilde">
          -24 callgsubr
          105 -43 callsubr
          -35 50 69 90 67 50 hintmask 00000000
          hintmask 11101110
          291 -26 callgsubr
          -207 -888 -29 callgsubr
        </CharString>
        <CharString name="J">
          -221 0 74 614 -20 hstemhm
          144 90 hintmask 00000000
          hintmask 11100000
          24 74 -74 callgsubr
        </CharString>
        <CharString name="Jcircumflex">
          -221 0 74 -53 -32 callsubr
          81 139 hstemhm
          144 90 hintmask 01111000
          55 749 -107 callgsubr
          hintmask 10111000
          -31 -681 -74 callgsubr
        </CharString>
        <CharString name="K">
          48 21 -21 310 78 300 -20 hstem
          82 91 1 callsubr
          endchar
        </CharString>
        <CharString name="Kcommaaccent">
          48 -19 callsubr
          83 -21 310 78 300 -20 hstem
          82 91 79 94 1 callsubr
          -33 -535 -87 callgsubr
        </CharString>
        <CharString name="L">
          -71 0 75 callgsubr
          6 callsubr
          endchar
        </CharString>
        <CharString name="Lacute">
          -71 0 81 607 -20 79 141 hstem
          82 91 vstem
          100 747 -99 callgsubr
          -18 -752 rmoveto
          42 callgsubr
          endchar
        </CharString>
        <CharString name="Lcaron">
          -71 0 81 380 246 -19 -20 hstemhm
          82 91 152 82 hintmask 00000000
          hintmask 11011000
          310 461 rmoveto
          59 hlineto
          38 18 callgsubr
          -243 -634 rmoveto
          356 81 -265 hlineto
          hintmask 10111000
          607 -91 vlineto
          endchar
        </CharString>
        <CharString name="Lcommaaccent">
          -71 -19 callsubr
          62 75 callgsubr
          33 94 6 callsubr
          107 -913 -87 callgsubr
        </CharString>
        <CharString name="Ldot">
          -71 0 81 231 100 276 -20 hstem
          82 91 144 97 6 callsubr
          235 -376 -85 callsubr
        </CharString>
        <CharString name="Lslash">
          -72 0 75 callgsubr
          vstem
          173 81 rmoveto
          235 vlineto
          159 59 rlineto
          72 vlineto
          -159 -60 rlineto
          301 -91 -334 vlineto
          -56 -21 rlineto
          -71 vlineto
          56 21 rlineto
          -283 356 81 vlineto
          endchar
        </CharString>
        <CharString name="M">
          261 0 148 -127 -21 545 143 hstemhm
          82 85 456 87 hintmask 01111000
          623 hmoveto
          87 688 -126 hlineto
          hintmask 10111000
          -184 -540 rlineto
          -6 hlineto
          -184 540 rlineto
          -128 -688 85 545 5 hlineto
          185 -545 rlineto
          75 hlineto
          186 545 rlineto
          5 hlineto
          endchar
        </CharString>
        <CharString name="N">
          99 21 30 callsubr
          hintmask 10111000
          462 hmoveto
          -71 callsubr
          hintmask 11011000
          91 callsubr
          endchar
        </CharString>
        <CharString name="Nacute">
          99 21 -10 callsubr
          79 141 75 callsubr
          hintmask 10111100
          277 747 -99 callgsubr
          185 -752 rmoveto
          -71 callsubr
          hintmask 11011100
          91 callsubr
          endchar
        </CharString>
        <CharString name="Nacute.loclPLK">
          99 21 -10 callsubr
          79 141 75 callsubr
          hintmask 10111100
          277 747 -76 callsubr
          185 -752 rmoveto
          -71 callsubr
          hintmask 11011100
          91 callsubr
          endchar
        </CharString>
        <CharString name="Ncaron">
          99 21 -10 callsubr
          81 139 75 callsubr
          hintmask 10111100
          271 749 -98 callgsubr
          280 -882 rmoveto
          -71 callsubr
          hintmask 11011100
          91 callsubr
          endchar
        </CharString>
        <CharString name="Ncommaaccent">
          99 -19 callsubr
          83 62 callgsubr
          108 94 91 87 hintmask 11101111
          462 hmoveto
          -71 callsubr
          hintmask 11110111
          91 callsubr
          87 -737 -87 callgsubr
        </CharString>
        <CharString name="Ntilde">
          99 21 -10 callsubr
          93 -43 callsubr
          82 87 -16 -13 callsubr
          -17 87 -18 callsubr
          hintmask 1011010100000000
          479 69 callsubr
          hintmask 1010101010000000
          -101 callsubr
          hintmask 1011010100000000
          -93 callgsubr
          hintmask 1010110010000000
          -17 -876 rmoveto
          -71 callsubr
          hintmask 1100110010000000
          91 callsubr
          endchar
        </CharString>
        <CharString name="O">
          87 -8 78 548 78 74 callsubr
          309 -8 -105 callgsubr
          endchar
        </CharString>
        <CharString name="OE">
          362 0 78 230 78 224 78 74 callsubr
          309 hmoveto
          537 78 -269 hlineto
          -23 -26 -3 -3 -17 hvcurveto
          37 42 6 73 2 121 rrcurveto
          251 78 -252 hlineto
          -1 117 -7 71 -35 41 rrcurveto
          -3 15 26 -2 24 hhcurveto
          269 78 -537 hlineto
          -233 -13 -59 -285 -285 13 -59 233 hvcurveto
          78 vmoveto
          -144 -11 7 259 259 11 7 144 144 12 -8 -258 -259 -12 -7 -144 hvcurveto
          endchar
        </CharString>
        <CharString name="Oacute">
          -47 callsubr
          54 141 74 callsubr
          267 750 -99 callgsubr
          42 -763 -105 callgsubr
          endchar
        </CharString>
        <CharString name="Oacute.loclPLK">
          87 48 callgsubr
          311 91 vstem
          271 747 -76 callsubr
          38 -760 -105 callgsubr
          endchar
        </CharString>
        <CharString name="Obreve">
          -47 callsubr
          50 67 callsubr
          437 -83 callgsubr
          hintmask 11110010
          -128 -896 -105 callgsubr
          endchar
        </CharString>
        <CharString name="Ocircumflex">
          -47 callsubr
          54 139 74 callsubr
          175 750 -107 callgsubr
          134 -764 -105 callgsubr
          endchar
        </CharString>
        <CharString name="Odieresis">
          -47 callsubr
          80 82 hstemhm
          63 91 24 79 104 79 25 91 89 callgsubr
          178 776 -91 callsubr
          hintmask 11110010
          -52 -866 -105 callgsubr
          endchar
        </CharString>
        <CharString name="Ograve">
          -47 callsubr
          54 141 74 callsubr
          283 750 -91 callgsubr
          130 -894 -105 callgsubr
          endchar
        </CharString>
        <CharString name="Ohorn">
          5 callgsubr
          hstemhm
          52 callgsubr
          -23 60 hintmask 00000000
          hintmask 11001010
          533 784 -78 callgsubr
          -53 hlineto
          hintmask 10101100
          -73 callsubr
          hintmask 10011100
          34 callgsubr
          hintmask 10011010
          59 callgsubr
          hintmask 11001010
          30 vlineto
          hintmask 10101100
          -79 callsubr
          endchar
        </CharString>
        <CharString name="Ohungarumlaut">
          -47 callsubr
          57 128 74 callsubr
          198 753 -83 callsubr
          -54 -766 -105 callgsubr
          endchar
        </CharString>
        <CharString name="Omacron">
          -47 callsubr
          114 77 hstem
          63 91 45 222 44 91 vstem
          199 810 -56 callgsubr
          110 -895 -105 callgsubr
          endchar
        </CharString>
        <CharString name="Oslash">
          86 -8 78 548 78 74 callsubr
          505 648 -71 callgsubr
        </CharString>
        <CharString name="Oslashacute">
          86 48 callgsubr
          311 91 vstem
          437 883 -66 callsubr
          171 -99 -71 callgsubr
        </CharString>
        <CharString name="Otilde">
          -47 callsubr
          65 -43 callsubr
          63 91 -8 -13 callsubr
          -7 91 hintmask 00000000
          hintmask 11101010
          472 876 -23 callgsubr
          hintmask 11001001
          -163 -884 -105 callgsubr
          endchar
        </CharString>
        <CharString name="P">
          30 21 -21 249 79 282 78 hstem
          82 91 258 90 vstem
          82 hmoveto
          91 249 166 hlineto
          165 17 99 121 127 -18 92 -163 hvcurveto
          -258 hlineto
          91 -360 rmoveto
          282 141 vlineto
          110 7 -41 -100 -100 -9 -41 -109 hvcurveto
          endchar
        </CharString>
        <CharString name="Q">
          87 -8 78 548 78 74 callsubr
          485 24 rmoveto
          65 42 6 93 185 vvcurveto
          291 -13 61 -234 -44 callsubr
          37 32 2 3 27 vhcurveto
          72 -112 rlineto
          98 3 hlineto
          -266 182 rmoveto
          -144 -11 7 267 267 11 7 144 144 12 -7 -267 -146 -3 -68 -26 -32 hvcurveto
          -80 120 rlineto
          -93 hlineto
          95 -147 rlineto
          -1 -15 -16 0 -18 hhcurveto
          endchar
        </CharString>
        <CharString name="R">
          15 callsubr
          hstem
          82 91 266 -37 callsubr
          endchar
        </CharString>
        <CharString name="R.ss01">
          17 callgsubr
          hstem
          82 90 266 -46 callsubr
          endchar
        </CharString>
        <CharString name="Racute">
          15 callsubr
          59 141 107 callgsubr
          423 883 -66 callsubr
          221 -747 rmoveto
          -94 callsubr
          endchar
        </CharString>
        <CharString name="Racute.ss01">
          17 callgsubr
          59 141 hstem
          82 90 266 91 vstem
          425 883 -66 callsubr
          201 -577 -95 callsubr
          endchar
        </CharString>
        <CharString name="Rcaron">
          15 callsubr
          61 139 107 callgsubr
          340 749 -7 callsubr
          291 -749 rmoveto
          -94 callsubr
          endchar
        </CharString>
        <CharString name="Rcaron.ss01">
          17 callgsubr
          61 139 hstem
          82 90 266 91 vstem
          342 749 -7 callsubr
          271 -579 -95 callsubr
          endchar
        </CharString>
        <CharString name="Rcommaaccent">
          58 -19 callsubr
          83 50 callsubr
          hstem
          82 91 83 94 89 -37 callsubr
          -64 -504 40 callgsubr
        </CharString>
        <CharString name="Rcommaaccent.ss01">
          62 -19 callsubr
          83 49 callsubr
          hstem
          82 90 86 94 86 -46 callsubr
          -66 -507 40 callgsubr
        </CharString>
        <CharString name="S">
          7 -37 callgsubr
          hstem
          52 90 253 -65 callgsubr
          endchar
        </CharString>
        <CharString name="Sacute">
          7 17 callsubr
          52 90 253 91 vstem
          230 747 -99 callgsubr
          48 -760 -100 callgsubr
          endchar
        </CharString>
        <CharString name="Sacute.loclPLK">
          7 17 callsubr
          52 90 253 91 vstem
          230 747 -76 callsubr
          48 -760 -100 callgsubr
          endchar
        </CharString>
        <CharString name="Scaron">
          7 -37 callgsubr
          54 139 hstem
          52 90 253 91 vstem
          230 750 -98 callgsubr
          137 -891 -100 callgsubr
          endchar
        </CharString>
        <CharString name="Scedilla">
          7 -7 77 548 78 hstem
          52 90 253 91 vstem
          486 199 rmoveto
          52 -4 36 -10 26 vhcurveto
          -21 54 -42 12 -60 7 -136 18 rcurveline
          -62 8 -9 13 79 vvcurveto
          42 3 30 24 18 vhcurveto
          17 21 37 7 64 hhcurveto
          52 66 -5 -7 46 hvcurveto
          74 vlineto
          9 -43 -73 7 -67 hhcurveto
          -141 -79 -34 -160 -102 13 -65 106 -13 hvcurveto
          137 -19 rlineto
          82 -11 5 -10 -92 vvcurveto
          -44 -2 -36 -24 -17 vhcurveto
          -17 -24 -34 -6 -60 hhcurveto
          -46 -77 5 7 -59 hvcurveto
          -76 vlineto
          47 -7 63 -5 58 -1 -59 -178 rcurveline
          -5 82 vlineto
          38 182 rlineto
          120 3 68 35 169 vvcurveto
          endchar
        </CharString>
        <CharString name="Scircumflex">
          7 -37 callgsubr
          53 139 hstem
          52 90 253 91 vstem
          135 749 -107 callgsubr
          143 -763 -100 callgsubr
          endchar
        </CharString>
        <CharString name="Scommaaccent">
          7 -19 callsubr
          54 -2 callgsubr
          78 hstem
          52 90 89 94 70 -65 callgsubr
          -64 -217 -87 callgsubr
        </CharString>
        <CharString name="T">
          -32 21 -21 607 81 hstem
          205 90 vstem
          205 hmoveto
          7 callgsubr
          endchar
        </CharString>
        <CharString name="Tbar">
          -32 21 -21 306 71 230 81 hstem
          205 90 vstem
          478 607 rmoveto
          81 -455 -81 182 -230 -159 -71 159 -306 90 306 158 71 -158 230 vlineto
          endchar
        </CharString>
        <CharString name="Tcaron">
          -32 21 -21 607 81 61 139 hstem
          205 90 vstem
          205 749 -98 callgsubr
          89 -882 rmoveto
          7 callgsubr
          endchar
        </CharString>
        <CharString name="Thorn">
          30 21 -21 131 78 282 79 -79 197 hstemhm
          83 90 258 90 hintmask 11101100
          83 hmoveto
          90 131 166 hlineto
          166 16 99 121 126 -17 93 -164 hvcurveto
          -167 hlineto
          hintmask 11011100
          118 -90 vlineto
          90 -479 rmoveto
          hintmask 11101100
          282 141 vlineto
          110 7 -40 -100 -100 -9 -42 -109 hvcurveto
          endchar
        </CharString>
        <CharString name="U">
          -40 callgsubr
          -24 callsubr
          446 688 rmoveto
          -422 vlineto
          -102 callgsubr
          387 vlineto
          endchar
        </CharString>
        <CharString name="Uacute">
          -40 callgsubr
          82 141 -24 callsubr
          269 750 -99 callgsubr
          177 -67 rmoveto
          -422 vlineto
          -102 callgsubr
          387 vlineto
          endchar
        </CharString>
        <CharString name="Ubreve">
          -40 callgsubr
          78 29 callsubr
          hintmask 11111110
          434 -83 callgsubr
          hintmask 11110010
          12 -200 rmoveto
          -422 vlineto
          -102 callgsubr
          387 vlineto
          endchar
        </CharString>
        <CharString name="Ucircumflex">
          -40 callgsubr
          82 139 -24 callsubr
          173 750 -107 callgsubr
          273 -68 rmoveto
          -422 vlineto
          -102 callgsubr
          387 vlineto
          endchar
        </CharString>
        <CharString name="Udieresis">
          -40 callgsubr
          108 82 -6 callgsubr
          hintmask 11111110
          175 776 -91 callsubr
          hintmask 11110010
          88 -170 rmoveto
          -422 vlineto
          -102 callgsubr
          387 vlineto
          endchar
        </CharString>
        <CharString name="Ugrave">
          -40 callgsubr
          82 141 -24 callsubr
          291 750 -91 callgsubr
          259 -198 rmoveto
          -422 vlineto
          -102 callgsubr
          387 vlineto
          endchar
        </CharString>
        <CharString name="Uhorn">
          76 callsubr
          -20 callgsubr
          36 60 vstem
          572 784 -78 callgsubr
          -67 -422 hlineto
          -102 callgsubr
          346 vlineto
          82 4 14 25 78 vvcurveto
          30 vlineto
          endchar
        </CharString>
        <CharString name="Uhungarumlaut">
          -40 callgsubr
          85 128 -24 callsubr
          195 753 -83 callsubr
          86 -70 rmoveto
          -422 vlineto
          -102 callgsubr
          387 vlineto
          endchar
        </CharString>
        <CharString name="Umacron">
          -40 callgsubr
          142 77 hstemhm
          76 90 30 222 28 90 66 callsubr
          196 810 -56 callgsubr
          hintmask 11110100
          250 -199 rmoveto
          -422 vlineto
          -102 callgsubr
          387 vlineto
          endchar
        </CharString>
        <CharString name="Uogonek">
          80 90 callgsubr
          -3 callgsubr
          hstem
          76 90 144 72 64 90 vstem
          446 688 rmoveto
          -422 vlineto
          -164 -7 -32 -133 -132 -8 32 164 vhcurveto
          422 -90 -387 vlineto
          -246 20 -63 210 22 20 1 2 17 vhcurveto
          -33 -36 -22 -41 -36 34 callsubr
          51 39 43 43 27 hvcurveto
          64 38 8 82 161 vvcurveto
          387 vlineto
          endchar
        </CharString>
        <CharString name="Uring">
          -40 callgsubr
          54 112 callgsubr
          hstemhm
          76 90 22 113 callgsubr
          21 90 hintmask 00000000
          hintmask 11111111
          305 722 -86 callgsubr
          hintmask 11111001
          141 -78 rmoveto
          -422 vlineto
          -102 callgsubr
          387 vlineto
          endchar
        </CharString>
        <CharString name="Utilde">
          -40 callgsubr
          105 31 callsubr
          hintmask 00000000
          hintmask 11101010
          469 888 -23 callgsubr
          hintmask 11011001
          -23 -200 rmoveto
          -422 vlineto
          -102 callgsubr
          387 vlineto
          endchar
        </CharString>
        <CharString name="V">
          35 0 107 581 -20 hstem
          19 529 vstem
          224 hmoveto
          119 hlineto
          205 688 rlineto
          -91 hlineto
          -169 -581 rlineto
          -6 hlineto
          -169 581 rlineto
          -94 hlineto
          endchar
        </CharString>
        <CharString name="W">
          -6 callsubr
          hstemhm
          26 802 hintmask 10110000
          562 hmoveto
          -84 callsubr
          hintmask 11010000
          28 callgsubr
        </CharString>
        <CharString name="Wacute">
          -6 callsubr
          79 141 hstemhm
          26 802 hintmask 10111000
          387 747 -99 callgsubr
          175 -752 rmoveto
          -84 callsubr
          hintmask 11011000
          28 callgsubr
        </CharString>
        <CharString name="Wcircumflex">
          -6 callsubr
          81 139 hstemhm
          26 802 hintmask 10111000
          292 749 -107 callgsubr
          270 -755 rmoveto
          -84 callsubr
          hintmask 11011000
          28 callgsubr
        </CharString>
        <CharString name="Wdieresis">
          -6 callsubr
          125 82 hstemhm
          295 79 104 79 hintmask 10111100
          295 793 -91 callsubr
          84 -875 rmoveto
          -84 callsubr
          hintmask 11011100
          28 callgsubr
        </CharString>
        <CharString name="Wgrave">
          -6 callsubr
          79 141 hstemhm
          26 802 hintmask 10111000
          402 747 -91 callgsubr
          264 -883 rmoveto
          -84 callsubr
          hintmask 11011000
          28 callgsubr
        </CharString>
        <CharString name="X">
          52 95 callgsubr
          22 540 vstem
          459 hmoveto
          103 hlineto
          -212 348 209 340 rlineto
          -100 hlineto
          -162 -267 rlineto
          -7 hlineto
          -162 267 rlineto
          -103 hlineto
          210 -342 -213 -346 rlineto
          100 hlineto
          165 273 rlineto
          7 hlineto
          endchar
        </CharString>
        <CharString name="Y">
          -4 95 callgsubr
          218 90 vstem
          218 hmoveto
          -90 callsubr
          endchar
        </CharString>
        <CharString name="Y.loclGUA">
          -50 callsubr
          74 callgsubr
          hintmask 01111110
          405 688 rmoveto
          -218 vlineto
          hintmask 10011110
          -77 callgsubr
          hintmask 01111110
          -84 callgsubr
          endchar
        </CharString>
        <CharString name="Yacute">
          -4 -46 callgsubr
          82 141 hstem
          218 90 vstem
          232 750 -99 callgsubr
          -14 -755 rmoveto
          -90 callsubr
          endchar
        </CharString>
        <CharString name="Yacute.loclGUA">
          -50 callsubr
          79 141 74 callgsubr
          hintmask 01111111
          392 883 -66 callsubr
          116 -59 rmoveto
          -218 vlineto
          hintmask 10011111
          -77 callgsubr
          hintmask 01111111
          -84 callgsubr
          endchar
        </CharString>
        <CharString name="Ycircumflex">
          -4 -46 callgsubr
          81 139 hstem
          218 90 vstem
          130 749 -107 callgsubr
          88 -755 rmoveto
          -90 callsubr
          endchar
        </CharString>
        <CharString name="Ycircumflex.loclGUA">
          -50 callsubr
          81 139 74 callgsubr
          hintmask 01111111
          264 843 -66 callgsubr
          216 -61 rmoveto
          -218 vlineto
          hintmask 10011111
          -77 callgsubr
          hintmask 01111111
          -84 callgsubr
          endchar
        </CharString>
        <CharString name="Ydieresis">
          -4 -46 callgsubr
          108 82 hstemhm
          136 79 3 90 11 79 119 callsubr
          136 776 -91 callsubr
          hintmask 11101000
          -101 -858 rmoveto
          -90 callsubr
          endchar
        </CharString>
        <CharString name="Ydieresis.loclGUA">
          -50 callsubr
          125 82 hstemhm
          34 91 8 79 7 90 7 79 10 108 callsubr
          hintmask 0101111011000000
          212 875 30 callgsubr
          hintmask 1001110101000000
          10 -105 rmoveto
          -218 vlineto
          -77 callgsubr
          hintmask 0111110101000000
          -84 callgsubr
          endchar
        </CharString>
        <CharString name="Ygrave">
          -4 -46 callgsubr
          79 141 hstem
          218 90 vstem
          240 747 -91 callgsubr
          82 -883 rmoveto
          -90 callsubr
          endchar
        </CharString>
        <CharString name="Ygrave.loclGUA">
          -50 callsubr
          79 141 74 callgsubr
          hintmask 01111111
          302 747 -55 callgsubr
          166 -59 rmoveto
          -218 vlineto
          hintmask 10011111
          -77 callgsubr
          hintmask 01111111
          -84 callgsubr
          endchar
        </CharString>
        <CharString name="Z">
          -12 77 callsubr
          hstem
          42 438 vstem
          42 hmoveto
          -81 callgsubr
          endchar
        </CharString>
        <CharString name="Zacute">
          -12 77 callsubr
          59 141 hstem
          42 438 vstem
          221 747 -99 callgsubr
          -179 -752 rmoveto
          -81 callgsubr
          endchar
        </CharString>
        <CharString name="Zacute.loclPLK">
          -12 77 callsubr
          59 141 hstem
          42 438 vstem
          221 747 -76 callsubr
          -179 -752 rmoveto
          -81 callgsubr
          endchar
        </CharString>
        <CharString name="Zcaron">
          -12 77 callsubr
          62 139 hstem
          42 438 vstem
          223 750 -98 callgsubr
          -92 -883 rmoveto
          -81 callgsubr
          endchar
        </CharString>
        <CharString name="Zdotaccent">
          -12 77 callsubr
          105 82 hstem
          221 79 vstem
          221 0 callgsubr
          -179 -875 rmoveto
          -81 callgsubr
          endchar
        </CharString>
        <CharString name="a">
          -85 callgsubr
          59 callsubr
          hintmask 10111100
          189 -8 -80 callgsubr
          hintmask 01111100
          -107 callsubr
          hintmask 10111100
          -102 callsubr
          endchar
        </CharString>
        <CharString name="aacute">
          -85 callgsubr
          84 141 32 callgsubr
          206 602 -99 callgsubr
          -17 -615 -80 callgsubr
          hintmask 01111110
          -107 callsubr
          hintmask 10111110
          -102 callsubr
          endchar
        </CharString>
        <CharString name="abreve">
          -85 callgsubr
          83 53 hstemhm
          44 84 -7 -52 callgsubr
          -35 85 -18 callsubr
          hintmask 1011101100000000
          377 -75 callgsubr
          hintmask 1011110010000000
          -188 -751 -63 callsubr
        </CharString>
        <CharString name="acircumflex">
          -85 callgsubr
          86 139 32 callgsubr
          116 604 -107 callgsubr
          73 13 callsubr
          hintmask 01111110
          -107 callsubr
          hintmask 10111110
          -102 callsubr
          endchar
        </CharString>
        <CharString name="acute">
          88 callgsubr
          167 vstem
          13 602 -99 callgsubr
          endchar
        </CharString>
        <CharString name="acute.case.loclPLK">
          -338 747 141 hstem
          13 128 vstem
          13 747 -76 callsubr
          endchar
        </CharString>
        <CharString name="acute.loclPLK">
          88 callgsubr
          128 vstem
          13 602 -76 callsubr
          endchar
        </CharString>
        <CharString name="acutecomb">
          602 57 callsubr
          -181 602 -99 callgsubr
          endchar
        </CharString>
        <CharString name="acutecomb.case">
          747 57 callsubr
          -181 747 -99 callgsubr
          endchar
        </CharString>
        <CharString name="adieresis">
          -85 callgsubr
          128 82 hstemhm
          44 84 -9 79 104 79 -39 85 hintmask 1011101010000000
          119 646 rmoveto
          79 82 -79 hlineto
          hintmask 1011110100000000
          183 -82 rmoveto
          79 82 -79 hlineto
          -113 -736 rmoveto
          hintmask 1011101010000000
          54 71 8 68 27 hvcurveto
          6 hlineto
          hintmask 0111110010000000
          -107 callsubr
          hintmask 1011110100000000
          -111 48 -37 97 vhcurveto
          34 74 rmoveto
          -79 -16 13 68 hvcurveto
          hintmask 1011110010000000
          72 15 12 65 vhcurveto
          134 -23 hlineto
          -47 -7 -31 -13 -23 vhcurveto
          hintmask 1011110100000000
          94 callgsubr
        </CharString>
        <CharString name="ae">
          115 callsubr
          114 callsubr
          728 256 -80 callsubr
        </CharString>
        <CharString name="aeacute">
          115 callsubr
          84 141 114 callsubr
          520 738 -66 callsubr
          311 -346 -80 callsubr
        </CharString>
        <CharString name="agrave">
          -85 callgsubr
          84 141 32 callgsubr
          231 602 -91 callgsubr
          62 -746 -80 callgsubr
          hintmask 01111110
          -107 callsubr
          hintmask 10111110
          -102 callsubr
          endchar
        </CharString>
        <CharString name="amacron">
          -85 callgsubr
          147 77 hstemhm
          44 84 11 222 -19 85 hintmask 00000000
          hintmask 10111110
          139 665 -56 callgsubr
          hintmask 10111101
          50 -750 -80 callgsubr
          hintmask 01111101
          -107 callsubr
          hintmask 10111101
          -102 callsubr
          endchar
        </CharString>
        <CharString name="ampersand">
          105 -8 72 247 74 238 73 hstemhm
          57 87 -81 86 19 171 86 85 hintmask 11110010
          425 385 rmoveto
          -313 vlineto
          -6 -34 -39 -2 -33 hhcurveto
          -123 -52 17 106 83 13 41 108 hvcurveto
          hintmask 11110110
          74 74 -74 hlineto
          hintmask 11101010
          -107 -9 55 62 90 22 31 169 44 71 -6 -8 52 hvcurveto
          68 vlineto
          11 -55 -80 8 -57 hhcurveto
          -206 -46 -71 -110 -100 34 -44 71 -18 hvcurveto
          -4 vlineto
          hintmask 11110010
          -72 -19 -39 -34 -113 vvcurveto
          -119 37 -72 221 69 84 10 8 42 vhcurveto
          301 99 74 vlineto
          endchar
        </CharString>
        <CharString name="aogonek">
          -33 90 callgsubr
          72 -43 -21 233 61 152 72 hstemhm
          44 83 168 73 -26 85 hintmask 00000000
          hintmask 11011110
          413 -142 rmoveto
          -34 -11 18 22 hvcurveto
          hintmask 10111101
          38 33 45 26 19 vhcurveto
          320 vlineto
          149 -27 49 -163 -59 -60 -6 -8 -45 vhcurveto
          -68 vlineto
          5 32 68 5 37 hhcurveto
          112 20 -9 -116 hvcurveto
          -31 vlineto
          2 -52 -78 2 -26 hhcurveto
          -110 -32 -39 -114 hvcurveto
          hintmask 11011101
          -114 47 -35 100 53 70 8 70 27 vhcurveto
          5 hlineto
          hintmask 10111101
          4 -70 rlineto
          6 hlineto
          hintmask 11011110
          -35 -34 -26 -44 -42 vvcurveto
          -40 23 -36 72 11 12 1 1 17 vhcurveto
          53 vlineto
          -6 -6 -1 -5 hhcurveto
          hintmask 11011101
          -71 347 rmoveto
          -45 -5 -30 -13 -26 vhcurveto
          -35 -18 -38 -5 -45 hhcurveto
          -80 -16 14 70 74 16 11 65 hvcurveto
          134 hlineto
          endchar
        </CharString>
        <CharString name="approxequal">
          -61 111 63 -21 62 78 62 -8 callsubr
          62 50 246 50 hintmask 01011100
          62 282 rmoveto
          50 hlineto
          39 3 13 106 callgsubr
          hintmask 01101100
          -12 36 38 -11 37 hhcurveto
          67 7 36 23 callsubr
          -78 hvcurveto
          -182 vmoveto
          50 hlineto
          39 3 14 106 callgsubr
          hintmask 10011100
          -12 36 38 -12 37 hhcurveto
          67 7 37 23 callsubr
          -79 hvcurveto
          endchar
        </CharString>
        <CharString name="aring">
          -85 callgsubr
          78 112 callgsubr
          hstemhm
          44 84 3 113 callgsubr
          -26 85 hintmask 1011110101000000
          248 596 rmoveto
          hintmask 1011110110000000
          113 7 29 73 73 -7 30 -113 -111 -6 -30 -73 hvcurveto
          hintmask 1011110101000000
          -73 6 -29 111 vhcurveto
          hintmask 1011110110000000
          44 vmoveto
          -60 -2 13 45 45 2 13 60 63 1 -13 -45 -45 -1 -13 -63 hvcurveto
          hintmask 1011111001000000
          -59 -648 -80 callgsubr
          hintmask 0111111001000000
          -107 callsubr
          hintmask 1011111001000000
          -102 callsubr
          endchar
        </CharString>
        <CharString name="aringacute">
          -85 callgsubr
          89 112 callgsubr
          32 110 callgsubr
          3 113 callgsubr
          -26 85 hintmask 1011111010100000
          213 844 -99 callgsubr
          35 -242 rmoveto
          hintmask 1011111011000000
          113 7 29 73 73 -7 30 -113 -111 -6 -30 -73 hvcurveto
          hintmask 1011111010100000
          -73 6 -29 111 vhcurveto
          hintmask 1011111011000000
          44 vmoveto
          -60 -2 13 45 45 2 13 60 63 1 -13 -45 -45 -1 -13 -63 hvcurveto
          hintmask 1011111100100000
          -59 -659 -80 callgsubr
          hintmask 0111111100100000
          -107 callsubr
          hintmask 1011111100100000
          -102 callsubr
          endchar
        </CharString>
        <CharString name="arrowboth">
          61 callgsubr
          328 174 rmoveto
          -37 96 rlineto
          301 hlineto
          -37 -96 100 callgsubr
          -301 hlineto
          37 97 -273 -131 rlineto
          endchar
        </CharString>
        <CharString name="arrowdown">
          -137 0 callsubr
          hstem
          164 68 vstem
          198 -85 rmoveto
          130 273 -96 -37 rlineto
          537 -68 -537 vlineto
          -97 37 rlineto
          endchar
        </CharString>
        <CharString name="arrowdown.ss01">
          -187 171 285 hstem
          30 285 vstem
          173 171 rmoveto
          142 285 rlineto
          -285 hlineto
          endchar
        </CharString>
        <CharString name="arrowleft">
          61 callgsubr
          287 270 rmoveto
          541 68 -541 hlineto
          37 97 -269 -131 269 -130 rlineto
          endchar
        </CharString>
        <CharString name="arrowleft.ss01">
          -169 201 285 hstem
          30 285 vstem
          315 201 rmoveto
          285 vlineto
          -285 -143 rlineto
          endchar
        </CharString>
        <CharString name="arrowright">
          61 callgsubr
          555 174 rmoveto
          100 callgsubr
          -537 -68 537 hlineto
          endchar
        </CharString>
        <CharString name="arrowright.ss01">
          -169 201 285 hstem
          48 285 vstem
          48 201 rmoveto
          285 142 -285 143 rlineto
          endchar
        </CharString>
        <CharString name="arrowup">
          -137 691 -20 hstem
          164 68 vstem
          164 -82 rmoveto
          68 537 hlineto
          96 -37 -130 273 -131 -273 97 37 rlineto
          endchar
        </CharString>
        <CharString name="arrowup.ss01">
          -187 516 -20 hstem
          30 285 vstem
          30 231 rmoveto
          285 hlineto
          -142 285 rlineto
          endchar
        </CharString>
        <CharString name="arrowupdn">
          -137 696 -8 callgsubr
          endchar
        </CharString>
        <CharString name="arrowupdnbse">
          -137 -186 63 819 -8 callgsubr
          -12 -374 rmoveto
          285 63 -285 hlineto
          endchar
        </CharString>
        <CharString name="asciicircum">
          -101 688 61 hstem
          43 344 vstem
          316 459 rmoveto
          71 hlineto
          -132 290 rlineto
          -78 hlineto
          -134 -290 rlineto
          72 hlineto
          101 229 rlineto
          endchar
        </CharString>
        <CharString name="asciitilde">
          -61 251 62 -8 callsubr
          62 50 246 50 hintmask 00000000
          hintmask 10110000
          408 365 rmoveto
          -50 hlineto
          -38 -3 -14 -27 -24 -28 9 9 -29 vhcurveto
          hintmask 01110000
          11 -36 -37 12 -37 hhcurveto
          -68 -7 -36 -78 hvcurveto
          50 hlineto
          38 3 14 106 callgsubr
          hintmask 10110000
          -12 36 38 -11 37 hhcurveto
          67 7 36 78 hvcurveto
          endchar
        </CharString>
        <CharString name="asterisk">
          -107 513 -20 195 -20 hstem
          188 49 vstem
          233 477 rmoveto
          116 -76 29 51 -124 61 124 63 -29 50 -117 -76 9 138 rlineto
          -57 hlineto
          8 -139 -116 77 -29 -50 124 -63 -124 -61 29 -51 116 76 -8 -138 rlineto
          57 hlineto
          endchar
        </CharString>
        <CharString name="asterisk.ss02">
          285 -14 719 hstem
          35 747 vstem
          178 -14 rmoveto
          231 170 231 -170 -90 276 232 174 rlineto
          -288 hlineto
          -85 269 -87 -269 rlineto
          -287 hlineto
          234 -174 rlineto
          endchar
        </CharString>
        <CharString name="at">
          280 -108 45 131 62 -55 44 154 53 127 65 133 45 hstemhm
          72 47 124 74 175 77 123 49 hintmask 1011111111000000
          406 -108 rmoveto
          86 40 0 2 37 hvcurveto
          47 vlineto
          -2 -22 -84 -2 -57 hhcurveto
          -48 -40 1 2 -26 hvcurveto
          -168 12 -5 57 285 vvcurveto
          268 5 67 134 16 vhcurveto
          5 38 48 1 61 hhcurveto
          68 52 -1 -6 39 hvcurveto
          125 -19 3 -70 -261 vvcurveto
          -173 -15 -2 -42 vhcurveto
          -66 230 hlineto
          126 -21 43 -139 -49 -51 -5 -7 -41 vhcurveto
          -61 vlineto
          4 23 62 4 32 hhcurveto
          94 13 -7 -96 hvcurveto
          -27 vlineto
          1 -42 -66 2 -23 hhcurveto
          -92 -26 -32 -98 hvcurveto
          hintmask 1101111111000000
          -98 38 -30 87 47 52 8 57 23 vhcurveto
          5 hlineto
          hintmask 1011111111000000
          4 -58 rlineto
          127 hlineto
          84 31 5 214 352 -8 50 -327 -327 -7 -51 -351 -350 7 -52 327 hvcurveto
          hintmask 1101111111000000
          -12 238 rmoveto
          -65 -12 13 59 62 11 9 53 hvcurveto
          111 -28 hlineto
          -90 -21 -25 -77 vhcurveto
          endchar
        </CharString>
        <CharString name="atilde">
          -85 callgsubr
          110 63 callsubr
          hintmask 1011100101000000
          412 743 rmoveto
          -94 callgsubr
          hintmask 1011010110000000
          -101 callsubr
          hintmask 1011100101000000
          -93 callgsubr
          hintmask 1011101010000000
          -223 14 callsubr
          hintmask 0111101010000000
          -107 callsubr
          hintmask 1011101010000000
          -102 callsubr
          endchar
        </CharString>
        <CharString name="b">
          57 callgsubr
          hstemhm
          72 85 225 85 hintmask 10111000
          302 -8 rmoveto
          129 36 55 208 206 -35 57 -128 -70 -48 -17 -53 -23 hvcurveto
          -6 295 -85 hlineto
          hintmask 01111000
          -743 77 vlineto
          hintmask 10111000
          4 70 rlineto
          6 hlineto
          -67 25 59 -11 59 hhcurveto
          -33 76 rmoveto
          -54 -31 15 39 -13 hvcurveto
          -12 33 -2 42 58 vvcurveto
          60 2 43 13 33 vhcurveto
          36 13 30 15 54 hhcurveto
          99 14 -20 -167 -168 -14 -19 -99 hvcurveto
          endchar
        </CharString>
        <CharString name="backslash">
          114 callgsubr
          247 -55 rmoveto
          77 hlineto
          -240 798 rlineto
          -78 hlineto
          endchar
        </CharString>
        <CharString name="bar">
          101 callsubr
          -161 rmoveto
          78 904 -78 hlineto
          endchar
        </CharString>
        <CharString name="bar.ss02">
          -34 21 -21 696 -20 hstem
          -1 500 vstem
          -1 hmoveto
          500 696 -500 hlineto
          endchar
        </CharString>
        <CharString name="braceleft">
          -232 -150 893 hstemhm
          24 78 10 81 hintmask 10100000
          217 -150 -42 callgsubr
          -40 38 -48 67 72 vvcurveto
          119 vlineto
          77 -26 54 -65 16 vhcurveto
          7 vlineto
          65 16 26 54 76 vvcurveto
          120 vlineto
          72 48 67 40 38 vhcurveto
          -64 hlineto
          -39 -23 -66 -72 -89 vvcurveto
          -116 vlineto
          -58 -16 -65 -72 -1 vhcurveto
          hintmask 11100000
          -46 vlineto
          hintmask 10100000
          73 -2 15 -64 -58 vvcurveto
          -116 vlineto
          -89 65 -71 40 -23 vhcurveto
          endchar
        </CharString>
        <CharString name="braceright">
          -232 -150 893 hstemhm
          107 80 10 78 hintmask 11000000
          18 -150 -42 callgsubr
          40 23 65 71 89 vvcurveto
          116 vlineto
          58 15 64 73 2 vhcurveto
          hintmask 11100000
          46 vlineto
          hintmask 11000000
          -73 1 -15 65 58 vvcurveto
          116 vlineto
          89 -66 72 -39 23 vhcurveto
          -64 hlineto
          40 -39 49 -66 -72 vvcurveto
          -120 vlineto
          -76 25 -54 65 -16 vhcurveto
          -7 vlineto
          -65 -16 -25 -54 -77 vvcurveto
          -119 vlineto
          -72 -50 -68 -39 -37 vhcurveto
          endchar
        </CharString>
        <CharString name="bracketleft">
          -231 -150 63 767 63 hstem
          83 80 vstem
          83 -150 rmoveto
          183 61 hlineto
          -103 4 rlineto
          763 vlineto
          103 4 rlineto
          61 -183 vlineto
          endchar
        </CharString>
        <CharString name="bracketleft.ss02">
          23 callgsubr
          hvcurveto
          -348 vlineto
          endchar
        </CharString>
        <CharString name="bracketright">
          -231 -150 63 767 63 hstem
          139 80 vstem
          36 -150 rmoveto
          183 893 -183 -61 hlineto
          103 -4 rlineto
          -763 vlineto
          -103 -4 rlineto
          endchar
        </CharString>
        <CharString name="bracketright.ss02">
          -135 21 -21 696 -20 hstem
          0 352 vstem
          0 vmoveto
          352 348 hlineto
          88 callsubr
          vhcurveto
          endchar
        </CharString>
        <CharString name="breve">
          -250 601 53 hstem
          13 -52 callgsubr
          vstem
          269 -75 callgsubr
          endchar
        </CharString>
        <CharString name="brokenbar">
          101 callsubr
          390 rmoveto
          78 353 -78 hlineto
          -904 vmoveto
          78 353 -78 hlineto
          endchar
        </CharString>
        <CharString name="bullet">
          -198 241 205 hstem
          65 204 vstem
          269 342 rmoveto
          89 -4 15 -99 -97 -4 -15 -89 -87 4 -14 97 99 4 14 87 vhcurveto
          endchar
        </CharString>
        <CharString name="bullet.ss02">
          251 -8 60 155 60 -36 60 105 60 -35 60 155 60 hstemhm
          40 60 155 60 -36 60 105 60 -36 60 155 60 -18 callsubr
          hintmask 0010111011000000
          392 421 rmoveto
          62 50 39 73 90 -76 73 -36 -37 -76 -73 -90 -73 50 -39 63 hvcurveto
          60 vmoveto
          -30 -23 18 34 57 36 46 17 17 35 -46 -57 -34 -23 -18 -29 hvcurveto
          -189 -250 rmoveto
          hintmask 0011001100000000
          73 39 50 63 62 -39 50 -73 -90 -73 -76 -36 hvcurveto
          hintmask 0010111011000000
          -37 73 -76 90 vhcurveto
          hintmask 0011001100110000
          378 hmoveto
          89 73 76 37 36 -73 76 -89 -74 -39 -50 -62 -63 39 -50 74 hvcurveto
          -378 60 rmoveto
          -57 -46 36 17 17 46 35 57 34 18 -23 -29 -30 -18 -23 -34 hvcurveto
          378 hmoveto
          -35 -18 23 30 29 18 23 35 56 46 -35 -17 -17 -46 -36 -56 hvcurveto
          hintmask 1100000011000000
          -189 -299 rmoveto
          36 76 73 90 73 -50 39 -62 -63 -50 -39 -73 -90 76 -73 37 hvcurveto
          60 vmoveto
          -17 -36 46 57 34 23 18 30 29 23 -18 -34 -57 -35 -46 -17 hvcurveto
          endchar
        </CharString>
        <CharString name="c">
          33 callsubr
          hstem
          54 85 vstem
          365 5 -88 callsubr
        </CharString>
        <CharString name="cacute">
          33 callsubr
          97 callsubr
          vstem
          165 602 -99 callgsubr
          200 -602 -88 callsubr
        </CharString>
        <CharString name="cacute.loclPLK">
          33 callsubr
          97 callsubr
          vstem
          165 602 -76 callsubr
          200 -602 -88 callsubr
        </CharString>
        <CharString name="caron">
          102 callgsubr
          102 604 -98 callgsubr
          endchar
        </CharString>
        <CharString name="caron.loclCSY">
          84 callsubr
          42 442 rmoveto
          59 hlineto
          38 18 callgsubr
          endchar
        </CharString>
        <CharString name="ccaron">
          33 callsubr
          96 callgsubr
          vstem
          158 604 -98 callgsubr
          296 -732 -88 callsubr
        </CharString>
        <CharString name="ccedilla">
          -126 -8 73 -46 -21 447 73 hstemhm
          54 85 hintmask 10110000
          261 65 rmoveto
          -106 -16 28 162 158 15 32 105 30 42 -4 -6 31 hvcurveto
          69 vlineto
          8 -29 -53 6 -42 hhcurveto
          -156 -28 -76 -188 hvcurveto
          hintmask 01110000
          -148 11 -85 108 -23 98 callsubr
          182 rlineto
          9 hlineto
          41 52 6 7 31 hvcurveto
          70 vlineto
          -6 -31 -42 -4 -31 hhcurveto
          endchar
        </CharString>
        <CharString name="ccircumflex">
          33 callsubr
          96 callgsubr
          vstem
          69 604 -107 callgsubr
          296 -605 -88 callsubr
        </CharString>
        <CharString name="cdotaccent">
          33 callsubr
          130 82 hstemhm
          54 85 25 79 hintmask 00000000
          hintmask 11111000
          164 19 callgsubr
          201 -725 rmoveto
          70 vlineto
          -6 -31 -42 -4 -31 hhcurveto
          hintmask 11110000
          -106 -16 28 162 158 15 32 105 30 42 -4 -6 31 hvcurveto
          69 vlineto
          8 -29 -53 6 -42 hhcurveto
          -156 -28 -76 -188 -175 16 -87 171 hvcurveto
          hintmask 11111000
          41 52 6 7 31 hvcurveto
          endchar
        </CharString>
        <CharString name="cedilla">
          -374 -190 198 hstem
          18 122 vstem
          18 55 callsubr
        </CharString>
        <CharString name="cent">
          -112 -8 150 -129 -21 76 74 401 75 -75 153 hstemhm
          56 89 66 67 hintmask 00000000
          hintmask 10001110
          373 153 rmoveto
          -28 -6 -36 -4 -31 -1 rrcurveto
          401 vlineto
          30 35 -4 -5 26 hvcurveto
          hintmask 01110110
          71 vlineto
          -26 6 -31 5 -34 2 rrcurveto
          hintmask 01101110
          78 -67 -79 vlineto
          -118 -9 -37 -71 -195 vvcurveto
          -187 26 -76 129 -10 vhcurveto
          -77 67 76 vlineto
          38 2 30 5 27 7 rrcurveto
          -228 261 rmoveto
          135 11 47 55 13 vhcurveto
          -390 vlineto
          -55 13 -11 46 136 vvcurveto
          endchar
        </CharString>
        <CharString name="circumflex">
          102 callgsubr
          13 604 -107 callgsubr
          endchar
        </CharString>
        <CharString name="colon">
          -316 0 100 310 100 hstem
          60 97 vstem
          60 107 callsubr
          -510 vmoveto
          97 100 -97 hlineto
          endchar
        </CharString>
        <CharString name="comma">
          -316 -123 40 83 100 hstem
          59 98 vstem
          41 -83 35 callsubr
        </CharString>
        <CharString name="copyright">
          124 -8 40 122 48 282 49 122 41 hstem
          76 42 100 56 263 43 vstem
          328 -8 rmoveto
          244 8 46 306 306 -8 46 -244 -244 -8 -46 -306 -306 8 -46 244 hvcurveto
          40 vmoveto
          -203 -7 17 295 295 7 16 203 203 6 -16 -295 -295 -6 -17 -203 hvcurveto
          20 122 rmoveto
          26 32 3 3 18 hvcurveto
          47 vlineto
          -3 -17 -26 -2 -22 hhcurveto
          -79 -6 12 129 129 6 12 79 19 26 -2 -3 19 hvcurveto
          46 vlineto
          4 -15 -32 4 -28 hhcurveto
          -114 -16 -36 -154 -155 16 -34 114 hvcurveto
          endchar
        </CharString>
        <CharString name="currency">
          102 16 -21 22 -21 75 72 402 72 75 -20 hstemhm
          116 85 230 85 hintmask 01111110
          104 -4 rmoveto
          93 92 rlineto
          -12 27 38 -5 54 hhcurveto
          54 39 4 14 28 hvcurveto
          hintmask 10111110
          93 -94 50 50 -89 88 rlineto
          22 41 3 67 104 vvcurveto
          102 -3 66 -21 42 vhcurveto
          88 88 -50 49 -93 -93 rlineto
          14 -27 -39 4 -55 hhcurveto
          -54 -38 -4 -13 -28 hvcurveto
          -92 92 -50 -50 87 -86 rlineto
          -22 -42 -3 -66 -103 vvcurveto
          -105 3 -67 23 -41 vhcurveto
          hintmask 01111110
          -88 -87 rlineto
          262 98 rmoveto
          -114 -1 26 176 175 1 25 114 114 1 -25 -175 -176 -1 -26 -114 hvcurveto
          endchar
        </CharString>
        <CharString name="d">
          57 callgsubr
          28 callsubr
          hintmask 10111000
          -10 callgsubr
          hintmask 01111000
          -58 callgsubr
          hintmask 10111000
          51 callsubr
          33 76 -76 callgsubr
          endchar
        </CharString>
        <CharString name="dagger">
          -126 21 -21 450 67 171 -20 hstem
          170 64 vstem
          174 hmoveto
          56 hlineto
          8 446 117 8 rlineto
          55 vlineto
          53 callsubr
          115 -8 rlineto
          endchar
        </CharString>
        <CharString name="daggerdbl">
          -126 21 -21 174.5 63 212.5 67 171 -20 hstemhm
          166 72 -68 64 119 callsubr
          174 hmoveto
          56 hlineto
          8 171 117 7 rlineto
          56 vlineto
          hintmask 11111000
          -117 7 rlineto
          205 vlineto
          117 8 rlineto
          55 vlineto
          hintmask 11110100
          53 callsubr
          hintmask 11111000
          115 -8 rlineto
          -205 vlineto
          -115 -7 rlineto
          -56 vlineto
          hintmask 11110100
          115 -7 rlineto
          endchar
        </CharString>
        <CharString name="dcaron">
          57 callgsubr
          170 -20 28 callsubr
          51 82 hintmask 10111110
          -10 callgsubr
          hintmask 01111110
          -58 callgsubr
          hintmask 10111110
          51 callsubr
          266 450 rmoveto
          59 hlineto
          37 18 callgsubr
          -247 -547 -76 callgsubr
          endchar
        </CharString>
        <CharString name="dcroat">
          57 callgsubr
          99 71 28 callsubr
          hintmask 10111100
          507 688 rmoveto
          -59 55 -85 -55 -122 -71 122 -169 -5 hlineto
          53 -24 -48 17 -69 hhcurveto
          -129 -34 -57 -207 -208 36 -54 129 58 60 11 67 25 hvcurveto
          6 hlineto
          hintmask 01111100
          3 -70 rlineto
          77 617 59 hlineto
          hintmask 10111100
          -156 -495 rmoveto
          -38 -13 -31 -16 -55 hhcurveto
          -99 -14 19 168 167 14 20 97 59 31 -18 -46 13 hvcurveto
          9 -30 1 -40 -47 vvcurveto
          -63 -1 -41 -11 -35 vhcurveto
          endchar
        </CharString>
        <CharString name="degree">
          -179 397 48 202 49 hstem
          55 59 125 60 vstem
          177 10 callgsubr
          48 vmoveto
          -63 0 17 84 84 0 17 63 62 0 -17 -84 -84 0 -17 -62 hvcurveto
          endchar
        </CharString>
        <CharString name="dialog">
          273 58 callsubr
          59 60 567 60 vstem
          306 -212 rmoveto
          213 212 rlineto
          227 688 -687 -688 247 60 -187 568 567 -568 -192 hlineto
          -188 -187 rlineto
          endchar
        </CharString>
        <CharString name="dieresis">
          -232 648 82 hstem
          19 79 104 79 vstem
          19 648 -91 callsubr
          endchar
        </CharString>
        <CharString name="divide">
          -21 36 77 105 70 105 76 hstem
          218 75 vstem
          218 393 rmoveto
          75 76 -75 hlineto
          -152 -251 rmoveto
          42 callsubr
          152 -252 rmoveto
          75 77 -75 hlineto
          endchar
        </CharString>
        <CharString name="dollar">
          -54 13 -21 76 75 159 78 -66.5 77 153.5 75 77 -20 hstemhm
          59 85 65 66 58 86 hintmask 1110111110000000
          419 227 rmoveto
          117 -30 24 -74 10 vhcurveto
          -40 4 rlineto
          162 vlineto
          38 -1 44 -4 36 -5 rrcurveto
          70 vlineto
          -33 8 -40 5 -45 2 rrcurveto
          77 -66 -78 vlineto
          -100 -8 -50 -36 -111 vvcurveto
          hintmask 1101111110000000
          -93 19 -42 91 -12 vhcurveto
          40 -5 rlineto
          -168 vlineto
          -55 -45 5 5 -36 hvcurveto
          -71 vlineto
          36 -7 52 -5 48 -2 rrcurveto
          -76 66 77 vlineto
          hintmask 1110111110000000
          105 8 39 38 112 vvcurveto
          hintmask 1101111110000000
          -221 164 rmoveto
          -44 6 -10 7 62 vvcurveto
          56 22 16 43 5 vhcurveto
          -153 vlineto
          66 -245 rmoveto
          hintmask 1110111110000000
          157 4 vlineto
          43 -6 11 -3 -70 vvcurveto
          hintmask 1101111110000000
          -49 -9 -22 -49 -7 vhcurveto
          endchar
        </CharString>
        <CharString name="dotaccent">
          -417 648 82 hstem
          18 79 vstem
          18 19 callgsubr
          endchar
        </CharString>
        <CharString name="dotbelowcomb">
          -9 callgsubr
          hstem
          -156 97 vstem
          -156 -162 -85 callsubr
        </CharString>
        <CharString name="dotlessi">
          -34 callsubr
          111 callsubr
          72 hmoveto
          86 510 -86 hlineto
          endchar
        </CharString>
        <CharString name="e">
          -69 callsubr
          49 callgsubr
          441 255 -106 callsubr
          endchar
        </CharString>
        <CharString name="eacute">
          -69 callsubr
          84 141 49 callgsubr
          380 738 -66 callsubr
          164 -347 -106 callsubr
          endchar
        </CharString>
        <CharString name="ebreve">
          -69 callsubr
          83 53 hstemhm
          54 85 -20 -52 callgsubr
          -17 83 94 callsubr
          246 601 rmoveto
          120 9 59 83 hvcurveto
          -56 hlineto
          -58 -2 -31 -71 -71 0 31 58 vhcurveto
          -56 hlineto
          -83 7 -59 120 vhcurveto
          hintmask 11111001
          195 -346 -106 callsubr
          endchar
        </CharString>
        <CharString name="ecaron">
          -69 callsubr
          86 139 49 callgsubr
          293 604 -7 callsubr
          238 -349 -106 callsubr
          endchar
        </CharString>
        <CharString name="ecircumflex">
          -69 callsubr
          86 139 49 callgsubr
          251 698 -66 callgsubr
          265 -349 -106 callsubr
          endchar
        </CharString>
        <CharString name="edieresis">
          -69 callsubr
          128 82 hstemhm
          54 85 -18 79 104 79 -25 83 94 callsubr
          200 728 30 callgsubr
          hintmask 11111001
          58 -391 -106 callsubr
          endchar
        </CharString>
        <CharString name="edotaccent">
          -69 callsubr
          130 82 hstem
          54 85 69 79 71 83 vstem
          287 730 109 callgsubr
          154 -393 -106 callsubr
          endchar
        </CharString>
        <CharString name="egrave">
          -69 callsubr
          84 141 49 callgsubr
          294 602 -55 callgsubr
          210 -347 -106 callsubr
          endchar
        </CharString>
        <CharString name="eight">
          57 -8 77 241 76 233 77 hstemhm
          61 90 -85 91 275 91 -86 91 hintmask 11110010
          294 -8 rmoveto
          194 40 65 126 119 -38 29 -71 79 callsubr
          -52 55 -177 -177 80 callgsubr
          -72 -18 -37 -29 -119 vvcurveto
          -126 39 -65 194 vhcurveto
          hintmask 11101100
          394 vmoveto
          -112 -25 21 95 95 23 22 114 115 23 -22 -95 -95 -26 -21 -112 hvcurveto
          hintmask 11110010
          -317 vmoveto
          -110 -33 46 callgsubr
        </CharString>
        <CharString name="eight.dnom">
          -183 -4 37 callsubr
          -4 -62 callgsubr
        </CharString>
        <CharString name="eight.numr">
          -183 304 37 callsubr
          304 -62 callgsubr
        </CharString>
        <CharString name="eight.tnum">
          41 -8 77 241 76 233 77 hstemhm
          53 91 -86 91 275 91 -85 90 hintmask 11110010
          287 -8 rmoveto
          193 40 65 126 119 -37 29 -72 79 callsubr
          -51 55 -177 -178 80 callgsubr
          -71 -18 -38 -29 -119 vvcurveto
          -126 39 -65 195 vhcurveto
          hintmask 11101100
          394 vmoveto
          -113 -25 21 95 95 23 22 115 114 23 -22 -95 -95 -26 -21 -111 hvcurveto
          hintmask 11110010
          -317 vmoveto
          -111 -32 46 callgsubr
        </CharString>
        <CharString name="ellipsis">
          117 0 100 hstem
          60 97 119 97 119 98 vstem
          60 hmoveto
          97 100 -97 hlineto
          216 -100 rmoveto
          97 100 -97 hlineto
          216 -100 rmoveto
          98 100 -98 hlineto
          endchar
        </CharString>
        <CharString name="emacron">
          -69 callsubr
          147 77 hstemhm
          54 85 -2 222 -1 83 119 callsubr
          359 742 105 callgsubr
          hintmask 11111010
          82 -410 -106 callsubr
          endchar
        </CharString>
        <CharString name="emdash">
          316 268 71 hstem
          54 740 vstem
          54 268 rmoveto
          740 71 -740 hlineto
          endchar
        </CharString>
        <CharString name="endash">
          -79 268 71 hstem
          54 345 vstem
          54 268 rmoveto
          345 71 -345 hlineto
          endchar
        </CharString>
        <CharString name="eng">
          44 callgsubr
          305 518 rmoveto
          -87 -40 -30 -48 -19 hvcurveto
          -6 hlineto
          hintmask 11011100
          -48 callsubr
          hintmask 11101100
          -73 callgsubr
          -366 -5 callsubr
          -67 vlineto
          127 39 11 134 hvcurveto
          374 vlineto
          135 -20 61 -130 vhcurveto
          endchar
        </CharString>
        <CharString name="eogonek">
          -37 90 callgsubr
          72 163 61 159 71 hstemhm
          54 85 136 72 11 82 hintmask 11111010
          440 255 rmoveto
          193 -7 70 -177 -189 -13 -74 -190 -198 20 -64 187 vhcurveto
          hintmask 11111110
          25 27 1 2 25 hvcurveto
          -38 -35 -25 -40 -41 vvcurveto
          -39 22 -36 72 16 80 callsubr
          19 20 40 44 48 32 22 hvcurveto
          67 vlineto
          -6 -44 -59 -4 -41 hhcurveto
          -130 -10 26 137 hvcurveto
          hintmask 11111010
          301 hlineto
          -186 220 rmoveto
          82 22 -15 -135 hvcurveto
          -9 -219 vlineto
          137 1 12 22 102 hhcurveto
          endchar
        </CharString>
        <CharString name="equal">
          -21 122 70 121 70 78 callsubr
          66 313 rmoveto
          42 callsubr
          -261 vmoveto
          42 callsubr
          endchar
        </CharString>
        <CharString name="estimated">
          86 -8 34 297 34 305 34 hstemhm
          63 90 312 90 -44 36 hintmask 11111000
          153 323 rmoveto
          402 21 hlineto
          291 -13 61 -233 -44 callsubr
          vhcurveto
          hintmask 11110100
          187 41 34 174 10 hvcurveto
          -36 hlineto
          -165 -10 -38 -9 -148 hhcurveto
          hintmask 11111000
          -147 -14 8 289 -1 hvcurveto
          156 339 rmoveto
          142 14 -8 -297 hvcurveto
          -312 hlineto
          297 1 13 8 142 hhcurveto
          endchar
        </CharString>
        <CharString name="eth">
          -21 -8 71 383 71 0 -20 175 71 29 callgsubr
          hintmask 11011100
          116 callsubr
          59 -5 58 -9 51 hvcurveto
          -13 76 -24 68 -29 51 63 11 rcurveline
          56 vlineto
          -97 -15 -19 25 -19 19 -14 14 rlinecurve
          -92 -4 hlineto
          17 -17 22 -23 22 -27 -74 -12 rcurveline
          -57 vlineto
          107 17 rlineto
          hintmask 10111100
          22 -36 18 -41 14 -48 -4 -3 rcurveline
          hintmask 11011100
          16 -25 -34 9 -50 hhcurveto
          -166 100 callsubr
          71 vmoveto
          -115 0 26 165 168 0 24 115 116 0 -49 -143 -165 0 -26 -116 hvcurveto
          endchar
        </CharString>
        <CharString name="exclam">
          -295 0 100 588 -20 hstem
          71 -21 callgsubr
          -17 -198 rmoveto
          98 100 -98 hlineto
          endchar
        </CharString>
        <CharString name="exclam.case">
          -295 0 100 588 -20 hstem
          71 -21 callgsubr
          -17 -198 rmoveto
          98 100 -98 hlineto
          endchar
        </CharString>
        <CharString name="exclam.ss02">
          262 -8 45 72 82 460 45 hstem
          45 45 273 68 273 45 vstem
          397 -8 rmoveto
          194 158 158 194 194 -158 158 -194 -194 -158 -158 -194 -194 158 -158 194 hvcurveto
          45 vmoveto
          -169 -138 138 169 169 138 138 169 169 138 -138 -169 -169 -138 -138 -169 hvcurveto
          -20 231 rmoveto
          40 hlineto
          6 38 8 90 84 vvcurveto
          99 -68 -99 vlineto
          -84 8 -90 6 -38 vhcurveto
          -14 -159 rmoveto
          68 82 -68 hlineto
          endchar
        </CharString>
        <CharString name="exclamdbl">
          -98 0 100 588 -20 hstem
          71 100 97 -21 callgsubr
          197 hmoveto
          63 hlineto
          2 67 17 250 78 vvcurveto
          95 -100 -95 vlineto
          -78 16 -250 2 -67 vhcurveto
          -214 -198 rmoveto
          98 100 -98 hlineto
          197 -100 -85 callsubr
        </CharString>
        <CharString name="exclamdown">
          -300 410 100 hstem
          66 100 vstem
          67 410 5 callsubr
        </CharString>
        <CharString name="exclamdown.case">
          -296 21 -21 588 100 hstem
          66 100 vstem
          67 588 5 callsubr
        </CharString>
        <CharString name="f">
          -200 6 callgsubr
          vstem
          110 hmoveto
          4 callgsubr
        </CharString>
        <CharString name="f_f">
          132 6 callgsubr
          247 85 vstem
          442 hmoveto
          -27 callsubr
          -332 -438 rmoveto
          4 callgsubr
        </CharString>
        <CharString name="fi">
          30 21 -21 438 72 141 92 hstem
          110 85 209 86 vstem
          402 -1 callgsubr
          -292 3 callgsubr
          294 -438 -29 callsubr
        </CharString>
        <CharString name="five">
          1 -8 78 264 78 198 78 hstem
          74 83 231 90 vstem
          67 81 rmoveto
          -72 vlineto
          -10 51 76 -7 55 hhcurveto
          187 42 62 160 128 -29 70 -168 -41 -52 -4 -5 -31 hvcurveto
          207 278 78 -361 -367 vlineto
          8 54 62 5 37 hhcurveto
          130 31 -15 -115 -104 -26 -30 -125 -40 -71 5 6 -59 hvcurveto
          endchar
        </CharString>
        <CharString name="five.dnom">
          -213 -4 84 callgsubr
          54 -64 callgsubr
          endchar
        </CharString>
        <CharString name="five.numr">
          -213 304 84 callgsubr
          362 -64 callgsubr
          endchar
        </CharString>
        <CharString name="five.tnum">
          41 -8 78 264 78 198 78 hstem
          94 84 230 91 vstem
          88 81 rmoveto
          -72 vlineto
          -10 51 76 -7 54 hhcurveto
          188 42 62 160 128 -29 70 -169 -41 -52 -4 -5 -30 hvcurveto
          207 278 78 -362 -367 vlineto
          8 54 63 5 36 hhcurveto
          131 30 -15 -115 -104 -26 -30 -124 -41 -70 5 6 -59 hvcurveto
          endchar
        </CharString>
        <CharString name="fiveeighths">
          264 73 callsubr
          88 52 -25 52 104 52 94 53 hstemhm
          46 56 123 61 198 33 callgsubr
          -18 callsubr
          hintmask 0111011111001000
          154 hmoveto
          -15 callgsubr
          -507 -326 -64 callgsubr
          hintmask 1010111111001000
          579 -366 -34 callgsubr
          hintmask 1010111110110000
          -53 callgsubr
          hintmask 1010111111001000
          -11 callsubr
          hintmask 1010111110110000
          -49 callsubr
          hintmask 1010111111001000
          -50 callgsubr
        </CharString>
        <CharString name="fl">
          30 6 callgsubr
          209 86 vstem
          404 hmoveto
          86 743 -86 hlineto
          -294 3 callgsubr
          endchar
        </CharString>
        <CharString name="florin">
          -160 -192 66 564 72 167 65 hstem
          -120 506 vstem
          372 677 rmoveto
          14 65 rlineto
          -162 -38 -13 -214 -45 hvcurveto
          -1 -5 rlineto
          -88 hlineto
          -15 -72 rlineto
          88 hlineto
          -103 -482 rlineto
          -72 -16 -20 -10 -92 hhcurveto
          -14 -66 rlineto
          157 40 11 191 41 hvcurveto
          91 428 rlineto
          112 hlineto
          15 72 rlineto
          -112 hlineto
          2 9 rlineto
          147 31 9 11 106 hhcurveto
          endchar
        </CharString>
        <CharString name="four">
          26 21 -21 158 78 452 -20 hstem
          345 90 vstem
          345 70 callsubr
          -212 hlineto
          221 452 rlineto
          -97 hlineto
          -220 -460 rlineto
          -70 307 vlineto
          endchar
        </CharString>
        <CharString name="four.dnom">
          -205 0 135 -52 52 hstemhm
          199 60 hintmask 10100000
          199 hmoveto
          60 hlineto
          hintmask 01100000
          83 48 vlineto
          hintmask 10100000
          52 -48 117 -45 vlineto
          82 callsubr
          hintmask 01100000
          103 callsubr
        </CharString>
        <CharString name="four.numr">
          -205 391 52 hstem
          199 60 vstem
          199 308 rmoveto
          60 83 48 52 -48 117 -45 hlineto
          82 callsubr
          103 callsubr
        </CharString>
        <CharString name="four.ss01">
          27 21 -21 158 79 358 93 0 -20 hstemhm
          346 89 hintmask 11011000
          345 hmoveto
          90 158 85 79 -85 451 -123 hlineto
          -274 -460 rlineto
          -70 307 vlineto
          -217 79 rmoveto
          hintmask 11101000
          216 358 rlineto
          2 -358 hlineto
          endchar
        </CharString>
        <CharString name="four.tnum">
          41 21 -21 158 78 452 -20 hstem
          355 90 vstem
          355 70 callsubr
          -216 hlineto
          225 452 rlineto
          -98 hlineto
          -224 -460 rlineto
          -70 312 vlineto
          endchar
        </CharString>
        <CharString name="fraction">
          -404 95 callgsubr
          -165 458 vstem
          -165 hmoveto
          -15 callgsubr
          endchar
        </CharString>
        <CharString name="g">
          -43 callgsubr
          28 callsubr
          hintmask 11101100
          238 -203 -5 callgsubr
          hintmask 11011100
          442 -77 vlineto
          hintmask 11101100
          -97 callsubr
        </CharString>
        <CharString name="g_tilde.loclGUA">
          -43 callgsubr
          138 -43 callsubr
          54 85 -42 50 216 85 -75 120 callgsubr
          hintmask 1110101001000000
          423 743 rmoveto
          -94 callgsubr
          hintmask 1110010110000000
          -101 callsubr
          hintmask 1110101001000000
          -93 callgsubr
          hintmask 1101101010000000
          -185 -946 -5 callgsubr
          442 -77 vlineto
          hintmask 1110101010000000
          -4 -70 rlineto
          -5 hlineto
          66 -25 -60 12 -58 hhcurveto
          -129 -36 -54 -208 -206 34 -54 131 69 47 17 53 23 hvcurveto
          5 -20 hlineto
          -145 -13 -31 -130 -40 -53 2 2 -47 vhcurveto
          -67 vlineto
          hintmask 1101101010000000
          -6 38 65 -4 55 hhcurveto
          hintmask 1110101010000000
          14 274 112 callsubr
          166 167 13 19 100 55 32 -17 -45 13 hvcurveto
          10 -29 1 -41 -54 vvcurveto
          -57 -1 -41 -11 -31 vhcurveto
          -40 -14 -30 113 callsubr
        </CharString>
        <CharString name="gbreve">
          -43 callgsubr
          111 53 hstemhm
          54 85 -7 -52 callgsubr
          -25 85 -18 callsubr
          hintmask 1110101100000000
          388 -75 callgsubr
          -150 -946 rmoveto
          hintmask 1101110010000000
          190 20 76 195 hvcurveto
          442 -77 vlineto
          hintmask 1110110010000000
          -4 -70 rlineto
          -5 hlineto
          66 -25 -60 12 -58 hhcurveto
          -129 -36 -54 -208 -206 34 -54 131 69 47 17 53 23 hvcurveto
          5 -20 hlineto
          -145 -13 -31 -130 -40 -53 2 2 -47 vhcurveto
          -67 vlineto
          hintmask 1110101100000000
          -6 38 65 -4 55 hhcurveto
          hintmask 1110110010000000
          14 274 112 callsubr
          166 167 13 19 100 55 32 -17 -45 13 hvcurveto
          10 -29 1 -41 -54 vvcurveto
          -57 -1 -41 -11 -31 vhcurveto
          -40 -14 -30 113 callsubr
        </CharString>
        <CharString name="gcaron">
          -43 callgsubr
          114 139 28 callsubr
          hintmask 11101110
          216 604 -98 callgsubr
          111 -940 -5 callgsubr
          hintmask 11011110
          442 -77 vlineto
          hintmask 11101110
          -97 callsubr
        </CharString>
        <CharString name="gcircumflex">
          -43 callgsubr
          114 139 28 callsubr
          hintmask 11101110
          126 604 -107 callgsubr
          112 -813 -5 callgsubr
          hintmask 11011110
          442 -77 vlineto
          hintmask 11101110
          -97 callsubr
        </CharString>
        <CharString name="gcommaaccent">
          -43 callgsubr
          113 94 69 39 hstemhm
          54 85 75 94 55 85 hintmask 1110111110000000
          325 39 callsubr
          -87 -969 -5 callgsubr
          hintmask 1101111110000000
          442 -77 vlineto
          hintmask 1110111110000000
          -97 callsubr
        </CharString>
        <CharString name="gdotaccent">
          -43 callgsubr
          158 82 hstemhm
          54 85 82 79 63 85 hintmask 11101111
          221 19 callgsubr
          17 -933 -5 callgsubr
          hintmask 11011111
          442 -77 vlineto
          hintmask 11101111
          -97 callsubr
        </CharString>
        <CharString name="germandbls">
          5 0 72 326 72 208 72 hstemhm
          72 85 100 113 19 85 -78 86 hintmask 11110010
          293 hmoveto
          162 27 66 175 131 -38 49 -74 14 hvcurveto
          4 vlineto
          hintmask 11110100
          72 13 32 41 86 vvcurveto
          115 -44 56 -154 -153 -51 -61 -142 vhcurveto
          -547 85 540 vlineto
          117 34 21 82 88 28 -21 -86 -75 -24 -26 -83 vhcurveto
          hintmask 11111010
          -25 -72 25 hlineto
          hintmask 11110010
          89 25 -26 -132 -157 -13 -11 -107 hvcurveto
          -41 -72 hlineto
          endchar
        </CharString>
        <CharString name="grave">
          88 callgsubr
          167 vstem
          117 602 -91 callgsubr
          endchar
        </CharString>
        <CharString name="gravecomb">
          602 57 callsubr
          -77 602 -91 callgsubr
          endchar
        </CharString>
        <CharString name="gravecomb.case">
          747 57 callsubr
          -77 747 -91 callgsubr
          endchar
        </CharString>
        <CharString name="greater">
          -20 55 396 78 callsubr
          66 55 27 callgsubr
          endchar
        </CharString>
        <CharString name="greaterequal">
          -20 15 70 78 callsubr
          66 180 27 callgsubr
          -238 vmoveto
          42 callsubr
          endchar
        </CharString>
        <CharString name="guillemotleft">
          -106 -25 callgsubr
          hstem
          38 329 vstem
          152 103 rmoveto
          61 hlineto
          -97 203 97 204 rlineto
          -61 hlineto
          -114 -204 rlineto
          268 -203 rmoveto
          61 hlineto
          -96 203 96 204 rlineto
          -61 hlineto
          -114 -204 rlineto
          endchar
        </CharString>
        <CharString name="guillemotright">
          -106 -25 callgsubr
          hstem
          59 329 vstem
          59 103 24 callsubr
          96 -204 rlineto
          58 -203 24 callsubr
          97 -204 rlineto
          endchar
        </CharString>
        <CharString name="guilsinglleft">
          -260 -25 callgsubr
          hstem
          38 174 vstem
          151 103 rmoveto
          61 hlineto
          -96 203 96 204 rlineto
          -61 hlineto
          -113 -204 rlineto
          endchar
        </CharString>
        <CharString name="guilsinglright">
          -260 -25 callgsubr
          hstem
          59 175 vstem
          59 103 24 callsubr
          96 -204 rlineto
          endchar
        </CharString>
        <CharString name="h">
          -5 21 67 callgsubr
          hstem
          72 85 213 -12 callsubr
          endchar
        </CharString>
        <CharString name="hbar">
          -5 21 67 callgsubr
          99 71 hstem
          63 callgsubr
          vstem
          304 518 rmoveto
          -85 -38 -30 -42 -18 hvcurveto
          -6 171 123 71 -123 55 -85 -55 -58 -71 58 -617 70 callgsubr
          -291 85 323 vlineto
          95 callsubr
          vhcurveto
          endchar
        </CharString>
        <CharString name="hcircumflex">
          -5 21 67 callgsubr
          264 139 hstem
          63 callgsubr
          vstem
          -19 782 -107 callgsubr
          389 -788 rmoveto
          85 323 hlineto
          95 callsubr
          -85 -38 -30 -42 -18 vhcurveto
          -6 297 -85 -743 70 callgsubr
          endchar
        </CharString>
        <CharString name="hookabovecomb">
          751 52 hstem
          -187 53 51 61 vstem
          -187 608 rmoveto
          53 hlineto
          21 2 2 35 12 vhcurveto
          -101 callgsubr
          endchar
        </CharString>
        <CharString name="hookabovecomb.case">
          872 53 hstem
          -187 53 51 61 vstem
          -187 730 rmoveto
          53 hlineto
          -44 callgsubr
          -22 -8 -5 -35 -11 hvcurveto
          -19 -6 rlineto
          -31 -11 -11 -8 -36 vvcurveto
          endchar
        </CharString>
        <CharString name="house">
          106 0 61 570 65 0 -20 hstemhm
          43 71.5 409 71.5 hintmask 10111000
          43 hmoveto
          552 394 hlineto
          -242 302 rlineto
          -68 hlineto
          -242 -302 rlineto
          72 -333 rmoveto
          -1 316 rlineto
          hintmask 11011000
          205 254 205 -254 -1 -316 rlineto
          endchar
        </CharString>
        <CharString name="hungarumlaut">
          -181 608 128 hstem
          18 315 vstem
          18 608 -83 callsubr
          endchar
        </CharString>
        <CharString name="hyphen">
          36 callsubr
        </CharString>
        <CharString name="i">
          -34 callsubr
          161 92 hstem
          72 116 callgsubr
          2 119 callgsubr
        </CharString>
        <CharString name="i.loclTRK">
          -34 callsubr
          158 82 hstemhm
          72 86 -83 79 hintmask 00000000
          hintmask 11101000
          75 19 callgsubr
          hintmask 11110000
          -3 -730 -29 callsubr
        </CharString>
        <CharString name="iacute">
          -34 callsubr
          112 141 111 callsubr
          72 602 -99 callgsubr
          -607 vmoveto
          86 510 -86 hlineto
          endchar
        </CharString>
        <CharString name="iacute_j.loclNLD">
          -72 -197 67 151 -60 callsubr
          112 141 hstem
          72 86 144 86 vstem
          77 602 -99 callgsubr
          230 -5 -99 callgsubr
          -235 -607 -33 callgsubr
          149 -707 -67 callsubr
        </CharString>
        <CharString name="ibreve">
          -34 callsubr
          111 53 hstemhm
          -13 56 29 86 29 56 66 callsubr
          243 -75 callgsubr
          hintmask 11101000
          -171 119 callgsubr
        </CharString>
        <CharString name="icircumflex">
          -34 callsubr
          114 139 111 callsubr
          -19 604 -107 callgsubr
          91 -610 -29 callsubr
        </CharString>
        <CharString name="idieresis">
          -34 callsubr
          156 82 hstemhm
          -15 79 8 86 10 79 66 callsubr
          -15 646 -91 callsubr
          hintmask 11101000
          -96 -728 -29 callsubr
        </CharString>
        <CharString name="igrave">
          -34 callsubr
          112 141 111 callsubr
          95 602 -91 callgsubr
          81 -738 -29 callsubr
        </CharString>
        <CharString name="ij">
          45 callgsubr
          70 651 rmoveto
          90 92 -90 hlineto
          230 -92 rmoveto
          90 92 -90 hlineto
          -228 -743 -33 callgsubr
          149 -707 -67 callsubr
        </CharString>
        <CharString name="imacron">
          -34 callsubr
          175 77 hstemhm
          4 222 -154 86 hintmask 00000000
          hintmask 11110000
          4 665 -56 callgsubr
          hintmask 11101000
          68 -742 -29 callsubr
        </CharString>
        <CharString name="infinity">
          384 49 65 284 65 hstem
          57 71 659 71 vstem
          252 49 rmoveto
          122 51 60 73 33 hvcurveto
          -73 33 51 -60 123 hhcurveto
          157 36 74 133 132 -36 75 -157 -123 -51 -62 -72 -33 hvcurveto
          72 -33 -51 62 -122 hhcurveto
          -157 -38 -75 -132 -133 38 -74 157 hvcurveto
          4 65 rmoveto
          -106 -22 49 93 93 22 49 106 105 37 -68 -74 23 hvcurveto
          -74 -23 -37 -68 -105 hhcurveto
          406 hmoveto
          -106 -38 68 74 -22 hvcurveto
          74 22 38 68 106 hhcurveto
          105 20 -49 -93 -93 -20 -49 -105 hvcurveto
          endchar
        </CharString>
        <CharString name="integral">
          -165 -190 66 755 65 hstemhm
          115 87 -46 87 hintmask 11010000
          49 -190 rmoveto
          132 62 6 115 7 -1 14 -3 49 hvcurveto
          hintmask 11100000
          -35 532 rlineto
          -1 17 -1 17 8 vvcurveto
          47 22 9 85 vhcurveto
          65 vlineto
          -133 -61 -7 -114 -9 1 -17 1 -17 hvcurveto
          hintmask 11010000
          35 -529 rlineto
          3 -52 1 -16 -6 vvcurveto
          -45 -23 -8 -84 vhcurveto
          endchar
        </CharString>
        <CharString name="iogonek">
          -302 -196 54 163 -60 callsubr
          158 82 hstemhm
          24 73 -25 86 -83 79 hintmask 00000000
          hintmask 11110010
          154 730 109 callgsubr
          hintmask 11111000
          -13 -790 rmoveto
          -33 -11 18 22 hvcurveto
          hintmask 11110100
          37 35 45 26 20 vhcurveto
          510 -86 -510 vlineto
          hintmask 11111000
          13 hlineto
          -35 -35 -26 -43 -42 vvcurveto
          -41 22 -35 73 11 12 1 1 17 vhcurveto
          53 vlineto
          -7 -5 -1 -6 hhcurveto
          endchar
        </CharString>
        <CharString name="itilde">
          -34 callsubr
          138 -43 callsubr
          -48 50 70 86 70 50 hintmask 11101110
          278 743 -23 callsubr
          -206 119 callgsubr
        </CharString>
        <CharString name="j">
          -302 -197 67 640 -20 161 92 hstem
          72 116 callgsubr
          -79 -940 -67 callsubr
        </CharString>
        <CharString name="jcircumflex">
          -302 -197 67 640 -20 114 139 111 callsubr
          -19 604 -107 callgsubr
          10 -807 -67 callsubr
        </CharString>
        <CharString name="k">
          -55 21 115 callgsubr
          -17 callsubr
          449 -85 -743 85 221 55 hlineto
          endchar
        </CharString>
        <CharString name="kcommaaccent">
          -55 -19 callsubr
          83 115 callgsubr
          43 94 -17 callsubr
          449 -85 -743 85 221 55 hlineto
          -29 -446 -87 callgsubr
        </CharString>
        <CharString name="kgreenlandic">
          -55 21 115 callgsubr
          -17 callsubr
          216 -85 -510 85 221 55 hlineto
          endchar
        </CharString>
        <CharString name="l">
          -302 21 -21 111 callsubr
          51 callgsubr
          endchar
        </CharString>
        <CharString name="lacute">
          -302 21 -21 780 141 111 callsubr
          77 780 -99 callgsubr
          -5 -785 rmoveto
          86 743 -86 hlineto
          endchar
        </CharString>
        <CharString name="lcaron">
          -302 21 -21 442 246 0 -20 hstemhm
          72 86 51 82 hintmask 10111000
          51 callgsubr
          hintmask 11011000
          122 -301 rmoveto
          59 hlineto
          38 18 callgsubr
          endchar
        </CharString>
        <CharString name="lcommaaccent">
          -302 -19 callsubr
          83 -21 hstemhm
          72 86 -44 56 hintmask 11110000
          51 callgsubr
          hintmask 11101000
          -13 -968 rmoveto
          -39 vlineto
          hintmask 11110000
          97 14 24 98 hvcurveto
          80 -94 -95 vlineto
          hintmask 11101000
          38 -16 hlineto
          -41 -8 -11 -47 vhcurveto
          endchar
        </CharString>
        <CharString name="ldot">
          -254 21 -21 249 100 hstem
          72 86 49 96 vstem
          51 callgsubr
          135 -494 rmoveto
          96 100 -96 hlineto
          endchar
        </CharString>
        <CharString name="leftOpenDialog">
          93 58 callsubr
          0 60 vstem
          626 628 rmoveto
          60 -566 vlineto
          -60 -688 59 hlineto
          567 60 -566 568 hlineto
          endchar
        </CharString>
        <CharString name="less">
          -20 55 396 78 callsubr
          446 55 38 callgsubr
          endchar
        </CharString>
        <CharString name="lessequal">
          -20 15 70 78 callsubr
          446 180 38 callgsubr
          -323 vmoveto
          42 callsubr
          endchar
        </CharString>
        <CharString name="logicalnot">
          -21 218 71 hstem
          374 71 vstem
          374 62 rmoveto
          71 227 -379 -71 308 hlineto
          endchar
        </CharString>
        <CharString name="longs">
          -221 6 callgsubr
          vstem
          110 hmoveto
          85 601 -59 callgsubr
          endchar
        </CharString>
        <CharString name="lozenge">
          -42 0 64 -43 -21 623 65 0 -20 hstemhm
          47 395 hintmask 01011000
          206 hmoveto
          78 hlineto
          158 344 -158 344 rlineto
          -78 hlineto
          -159 -344 rlineto
          hintmask 10101000
          198 -280 rmoveto
          -126 280 126 279 126 -279 rlineto
          endchar
        </CharString>
        <CharString name="lslash">
          -296 21 -21 hstem
          74 86 vstem
          74 hmoveto
          86 344 hlineto
          55 20 rlineto
          72 vlineto
          -55 -20 rlineto
          327 -86 -357 vlineto
          -52 -19 rlineto
          -72 vlineto
          52 19 rlineto
          endchar
        </CharString>
        <CharString name="m">
          253 21 -4 callgsubr
          hstemhm
          72 85 193 85 193 85 hintmask 11011100
          628 hmoveto
          85 323 hlineto
          135 -21 60 -120 -82 -40 -31 -47 -18 vhcurveto
          -6 hlineto
          55 -15 -35 23 -81 hhcurveto
          -81 -37 -31 -47 -18 hvcurveto
          -6 hlineto
          hintmask 10111100
          -48 callsubr
          hintmask 11011100
          114 5 62 97 80 11 -14 -136 vhcurveto
          -291 85 265 vlineto
          119 5 57 97 80 11 -14 -136 vhcurveto
          endchar
        </CharString>
        <CharString name="macron">
          36 callgsubr
        </CharString>
        <CharString name="minus">
          -21 218 70 78 callsubr
          66 218 rmoveto
          42 callsubr
          endchar
        </CharString>
        <CharString name="minute">
          -337 0 callsubr
          hstem
          55.5 88 vstem
          46 382 41 callgsubr
          endchar
        </CharString>
        <CharString name="multiply">
          -71 86 333 hstem
          64 333 vstem
          230 203 rmoveto
          117 -117 50 49 -117 117 117 117 -50 50 -116 -117 -117 116 -50 -49 117 -117 -116 -116 49 -49 rlineto
          endchar
        </CharString>
        <CharString name="n">
          -5 21 92 callgsubr
          hintmask 11011000
          370 hmoveto
          -70 callgsubr
          hintmask 10111000
          -48 callsubr
          hintmask 11011000
          -35 callgsubr
        </CharString>
        <CharString name="nacute">
          -5 21 -4 callgsubr
          112 141 58 callgsubr
          hintmask 11011100
          225 602 -99 callgsubr
          145 -607 -57 callgsubr
        </CharString>
        <CharString name="nacute.loclPLK">
          -5 21 -4 callgsubr
          112 141 58 callgsubr
          hintmask 11011100
          225 602 -76 callsubr
          145 -607 -57 callgsubr
        </CharString>
        <CharString name="napostrophe">
          49 21 -4 callgsubr
          52 39 80 82 hstemhm
          64 56 7 -3 callsubr
          hintmask 00000000
          hintmask 11011101
          35 callgsubr
          416 -581 rmoveto
          85 322 hlineto
          hintmask 11001011
          135 -21 61 -130 -87 -40 -30 -48 -19 vhcurveto
          -6 hlineto
          hintmask 10101011
          -4 70 rlineto
          -76 -510 85 265 hlineto
          hintmask 11001011
          113 4 63 107 89 13 -14 -136 vhcurveto
          endchar
        </CharString>
        <CharString name="ncaron">
          -5 21 -4 callgsubr
          114 139 58 callgsubr
          hintmask 11011100
          218 604 -98 callgsubr
          241 -737 -57 callgsubr
        </CharString>
        <CharString name="ncommaaccent">
          -5 -19 callsubr
          83 -4 callgsubr
          hstemhm
          72 85 68 94 51 85 hintmask 11110111
          370 hmoveto
          -70 callgsubr
          hintmask 11101111
          -48 callsubr
          hintmask 11110111
          -73 callgsubr
          -162 -516 -87 callgsubr
        </CharString>
        <CharString name="nine">
          37 -8 78 204 78 266 78 hstem
          51 89 275 91 vstem
          259 -8 rmoveto
          126 64 26 84 31 hvcurveto
          21 53 5 81 115 vvcurveto
          109 -4 76 -14 50 vhcurveto
          94 -27 -63 16 -128 hhcurveto
          -183 -36 -53 -174 -170 59 -25 141 107 35 28 22 17 hvcurveto
          5 hlineto
          -216 -17 -38 -156 -40 -66 5 8 -53 vhcurveto
          -73 vlineto
          -10 55 74 -8 47 hhcurveto
          18 360 rmoveto
          -115 -22 9 127 119 25 11 112 105 31 -15 -141 -82 -12 -28 -124 hvcurveto
          endchar
        </CharString>
        <CharString name="nine.dnom">
          -197 -4 71 callgsubr
          -4 -54 callgsubr
        </CharString>
        <CharString name="nine.numr">
          -197 304 71 callgsubr
          304 -54 callgsubr
        </CharString>
        <CharString name="nine.ss01">
          35 21 -21 274 77 267 78 hstem
          50 88 287 91 vstem
          163 hmoveto
          106 hlineto
          106 92 141 172 200 vvcurveto
          169 -45 63 -189 -188 -44 -68 -144 -148 34 -62 157 79 39 9 22 28 vhcurveto
          4 -2 -50 -128 -101 -104 -77 -65 rlinecurve
          120 345 rmoveto
          -107 -38 3 131 110 29 23 116 106 36 -12 -136 -100 -39 -19 -103 hvcurveto
          endchar
        </CharString>
        <CharString name="nine.tnum">
          41 -8 78 204 78 266 78 hstem
          56 88 276 91 vstem
          264 -8 rmoveto
          121 65 24 72 30 hvcurveto
          25 59 6 83 121 vvcurveto
          125 -5 80 -21 52 vhcurveto
          75 -29 -63 13 -119 hhcurveto
          -182 -36 -53 -174 -170 58 -25 141 107 35 27 23 17 hvcurveto
          6 hlineto
          -216 -18 -38 -155 -41 -65 5 8 -53 vhcurveto
          -73 vlineto
          -10 54 74 -8 48 hhcurveto
          17 360 rmoveto
          -114 -23 9 127 119 26 11 111 106 30 -15 -141 -82 -11 -28 -125 hvcurveto
          endchar
        </CharString>
        <CharString name="notequal">
          -21 122 70 121 70 78 callsubr
          221 122 rmoveto
          225 70 -192 hlineto
          58 121 rlineto
          134 70 -100 hlineto
          55 116 rlineto
          -63 hlineto
          -56 -116 rlineto
          -216 -70 183 hlineto
          -58 -121 rlineto
          -125 -70 92 hlineto
          -54 -111 rlineto
          63 hlineto
          endchar
        </CharString>
        <CharString name="ntilde">
          -5 21 -4 callgsubr
          138 -43 callsubr
          72 85 -54 50 217 85 -76 120 callgsubr
          hintmask 1101010010000000
          429 743 rmoveto
          -94 callgsubr
          hintmask 1100101100000000
          -101 callsubr
          hintmask 1101010010000000
          -93 callgsubr
          hintmask 1101010100000000
          -59 -743 -41 callsubr
          hintmask 1011010100000000
          -48 callsubr
          hintmask 1101010100000000
          -35 callgsubr
        </CharString>
        <CharString name="numbersign">
          134 21 -21 190 64 174 63 197 -20 hstem
          55 500 vstem
          308 hmoveto
          66 hlineto
          36 190 rlineto
          114 64 -101 hlineto
          34 174 rlineto
          98 63 -86 hlineto
          39 197 rlineto
          -65 hlineto
          -39 -197 rlineto
          -143 hlineto
          38 197 rlineto
          -65 hlineto
          -39 -197 rlineto
          -108 -63 96 hlineto
          -34 -174 rlineto
          -94 -64 82 hlineto
          -37 -190 rlineto
          66 hlineto
          36 190 rlineto
          143 hlineto
          47 238 rmoveto
          -34 -174 rlineto
          -143 hlineto
          33 174 rlineto
          endchar
        </CharString>
        <CharString name="o">
          -58 callsubr
          18 callsubr
          254 -8 -104 callsubr
          endchar
        </CharString>
        <CharString name="oacute">
          -58 callsubr
          84 141 18 callsubr
          214 602 -99 callgsubr
          40 -615 -104 callsubr
          endchar
        </CharString>
        <CharString name="oacute.loclPLK">
          -58 callsubr
          84 141 18 callsubr
          216 602 -76 callsubr
          38 -615 -104 callsubr
          endchar
        </CharString>
        <CharString name="obreve">
          -58 callsubr
          83 68 callgsubr
          382 -75 callgsubr
          hintmask 11110010
          -128 -751 -104 callsubr
          endchar
        </CharString>
        <CharString name="ocircumflex">
          -58 callsubr
          86 139 18 callsubr
          121 604 -107 callgsubr
          133 -618 -104 callsubr
          endchar
        </CharString>
        <CharString name="odieresis">
          -58 callsubr
          128 82 hstemhm
          54 85 -15 79 104 79 -16 85 hintmask 00000000
          hintmask 11101100
          124 646 -91 callsubr
          hintmask 11110010
          -53 -736 -104 callsubr
          endchar
        </CharString>
        <CharString name="oe">
          278 -8 69 169 56 162 70 -67 67 hstemhm
          53 60 callgsubr
          221 81 hintmask 11101110
          756 255 rmoveto
          198 -7 65 -175 -87 -47 -18 -42 -28 vhcurveto
          45 -25 -47 15 -88 hhcurveto
          -186 -13 -51 -213 -212 13 -50 186 89 47 14 48 26 hvcurveto
          -46 29 49 -16 87 hhcurveto
          57 67 6 9 36 hvcurveto
          65 vlineto
          -6 -45 -58 -5 -41 hhcurveto
          -129 -12 27 142 hvcurveto
          302 hlineto
          hintmask 11011110
          -186 221 rmoveto
          84 21 -15 -139 hvcurveto
          -11 -220 vlineto
          144 12 21 103 vhcurveto
          -316 -390 rmoveto
          -114 -2 25 168 hvcurveto
          hintmask 11101110
          169 2 25 114 113 2 -25 -169 vhcurveto
          hintmask 11011110
          -168 -2 -25 -113 vhcurveto
          endchar
        </CharString>
        <CharString name="ogonek">
          -398 -196 54 hstem
          0 72 vstem
          134 -194 rmoveto
          -7 callgsubr
        </CharString>
        <CharString name="ograve">
          -58 callsubr
          84 141 18 callsubr
          234 602 -91 callgsubr
          124 -746 -104 callsubr
          endchar
        </CharString>
        <CharString name="ohorn">
          -58 callsubr
          -48 40 29 callgsubr
          -2 60 hintmask 00000000
          hintmask 10110100
          453 606 -78 callgsubr
          -42 hlineto
          hintmask 11011000
          -60 callgsubr
          hintmask 10111000
          50 callgsubr
          hintmask 10110100
          78 4 13 25 77 vvcurveto
          30 vlineto
          hintmask 11011000
          -259 -542 rmoveto
          -99 callsubr
          endchar
        </CharString>
        <CharString name="ohungarumlaut">
          -58 callsubr
          90 128 18 callsubr
          150 608 -83 callsubr
          -61 -621 -104 callsubr
          endchar
        </CharString>
        <CharString name="omacron">
          -58 callsubr
          147 77 hstemhm
          54 85 5 222 4 85 hintmask 00000000
          hintmask 11101000
          144 665 -56 callgsubr
          hintmask 11110100
          110 -750 -104 callsubr
          endchar
        </CharString>
        <CharString name="one">
          -201 95 callgsubr
          151 90 vstem
          151 hmoveto
          90 688 -64 hlineto
          -146 -80 rlineto
          -82 vlineto
          120 57 rlineto
          endchar
        </CharString>
        <CharString name="one.dnom">
          -327 21 -21 hstem
          90 61 vstem
          90 hmoveto
          72 callsubr
        </CharString>
        <CharString name="one.numr">
          -327 308 378 hstem
          90 61 vstem
          90 308 rmoveto
          72 callsubr
        </CharString>
        <CharString name="one.tnum">
          41 0 78 610 -20 hstem
          265 90 vstem
          99 hmoveto
          410 78 -154 610 -64 hlineto
          -187 -91 rlineto
          -80 vlineto
          161 69 rlineto
          -508 -166 vlineto
          endchar
        </CharString>
        <CharString name="oneeighth">
          188 73 callsubr
          115 52 305 -20 hstemhm
          103 62 223 61 -58 61 146 61 -58 62 hintmask 1011111001000000
          -35 callsubr
          hintmask 0111111001000000
          -35 -615 rmoveto
          -15 callgsubr
          hintmask 1011111001000000
          62 -692 -34 callgsubr
          hintmask 1011110110000000
          42 9 19 26 55 vvcurveto
          71 -33 28 -101 -102 -32 -28 -71 -55 19 -26 42 -9 vhcurveto
          -2 vlineto
          hintmask 1011111001000000
          -42 -10 -22 -17 -64 vvcurveto
          -72 25 -33 112 vhcurveto
          hintmask 1011110110000000
          220 vmoveto
          -59 -14 9 48 49 13 9 60 61 12 -9 -49 -48 -14 -9 -59 hvcurveto
          hintmask 1011111001000000
          -169 vmoveto
          -58 -18 8 51 53 15 7 61 61 15 -7 -53 -51 -17 -8 -59 hvcurveto
          endchar
        </CharString>
        <CharString name="onehalf">
          167 0 56 267 56 309 -20 hstem
          103 62 243 60 110 63 vstem
          -35 callsubr
          360 73 rmoveto
          -395 -688 rlineto
          63 hlineto
          395 688 rlineto
          -58 -609 rmoveto
          28 5 12 21 11 vhcurveto
          89 42 rlineto
          1 callgsubr
          39 39 3 20 hhcurveto
          52 14 -7 -42 -32 -7 -11 -28 -14 hvcurveto
          -32 -15 -31 -16 54 callsubr
        </CharString>
        <CharString name="onequarter">
          106 0 134 -56 56 554 -20 hstemhm
          103 62 320 62 hintmask 10111000
          -35 callsubr
          -35 -615 rmoveto
          -15 callgsubr
          22 -688 rmoveto
          62 hlineto
          hintmask 01111000
          78 44 vlineto
          hintmask 10111000
          56 -44 126 -47 vlineto
          -14 -126 rlineto
          -100 hlineto
          116 239 rlineto
          -67 hlineto
          hintmask 01111000
          -115 -249 rlineto
          -46 165 vlineto
          endchar
        </CharString>
        <CharString name="ordfeminine">
          -163 313 55 119 47 105 57 hstem
          37 64 149 67 vstem
          143 313 rmoveto
          37 43 6 42 24 hvcurveto
          4 hlineto
          5 -44 rlineto
          61 234 hlineto
          108 -19 37 -120 -43 -46 -4 -7 -32 vhcurveto
          -54 vlineto
          4 31 44 4 24 hhcurveto
          83 11 -7 -80 hvcurveto
          -22 vlineto
          2 -35 -54 2 -21 hhcurveto
          -81 -22 -28 -83 -84 33 -26 73 hvcurveto
          25 55 rmoveto
          -55 -12 11 48 50 11 10 45 hvcurveto
          93 -21 hlineto
          -27 -2 -22 -7 -16 vhcurveto
          -27 -11 -27 -6 -35 hhcurveto
          endchar
        </CharString>
        <CharString name="ordmasculine">
          -150 313 56 270 57 hstem
          44 67 160 67 vstem
          191 313 rmoveto
          137 10 41 149 150 -10 43 -137 -137 -10 -43 -150 -149 10 -41 137 hvcurveto
          56 vmoveto
          -79 -1 17 117 118 1 18 79 79 1 -18 -118 -117 -1 -17 -79 hvcurveto
          endchar
        </CharString>
        <CharString name="orn.001">
          -195 223 240 hstem
          48 241 vstem
          289 341 rmoveto
          105 -6 17 -117 -112 -6 -17 -105 -102 6 -16 112 117 6 16 102 vhcurveto
          endchar
        </CharString>
        <CharString name="orn.002">
          17 234 60 100 60 hstem
          44 90 callsubr
          100 60 vstem
          210 -41 callgsubr
          63 101 -32 callgsubr
          121 87 44 callsubr
          -29 -21 22 28 29 21 21 29 28 22 -21 -29 -28 -22 -22 -28 hvcurveto
          endchar
        </CharString>
        <CharString name="orn.003">
          -117 46 596 hstem
          45 90 callsubr
          vstem
          211 -41 callgsubr
          63 101 -32 callgsubr
          63 101 3 callsubr
          endchar
        </CharString>
        <CharString name="orn.007">
          -195 222 241 hstem
          48 241 vstem
          168 222 rmoveto
          67 54 53 67 67 -54 54 -67 -67 -53 -54 -67 -67 53 -53 67 hvcurveto
          endchar
        </CharString>
        <CharString name="orn.010">
          262 21 -21 696 -20 hstem
          45 704 vstem
          397 hmoveto
          352 348 hlineto
          88 callsubr
          -207 -145 -143 -205 -204 145 -144 207 vhcurveto
          endchar
        </CharString>
        <CharString name="orn.015">
          33 58 callsubr
          -1 187 81 callgsubr
          187 60 -187 hlineto
          187 -272 rmoveto
          213 212 rlineto
          167 60 -192 hlineto
          -188 -187 rlineto
          endchar
        </CharString>
        <CharString name="orn.016">
          33 58 callsubr
          -1 567 81 callgsubr
          567 60 -567 hlineto
          endchar
        </CharString>
        <CharString name="orn.017">
          -472 95 callgsubr
          0 60 vstem
          0 vmoveto
          60 688 -60 hlineto
          endchar
        </CharString>
        <CharString name="orn.018">
          260 46 596 hstem
          45 90 callsubr
          102 90 callsubr
          vstem
          211 -41 callgsubr
          370 hmoveto
          99 62 67 110 126 vvcurveto
          125 -67 111 -99 62 vhcurveto
          -32 -51 rlineto
          82 -51 56 -92 -104 vvcurveto
          -105 -55 -91 -83 -52 vhcurveto
          -275 51 -32 callgsubr
          244 hmoveto
          65 41 44 73 83 vvcurveto
          83 -44 73 -66 41 vhcurveto
          -32 -51 rlineto
          49 -31 33 -54 -61 vvcurveto
          -62 -33 -53 -48 -31 vhcurveto
          -149 50 3 callsubr
          118 hmoveto
          8 callsubr
        </CharString>
        <CharString name="orn.019">
          17 234 60 100 60 hstem
          44 60 100 90 callsubr
          vstem
          338 -36 callsubr
          -89 36 44 callsubr
          -28 -22 22 28 29 22 21 28 29 21 -21 -29 -28 -21 -22 -29 hvcurveto
          endchar
        </CharString>
        <CharString name="orn.020">
          -117 46 596 hstem
          70 90 callsubr
          vstem
          204 -36 callsubr
          -31 50 rmoveto
          8 callsubr
        </CharString>
        <CharString name="orn.021">
          221 696 -20 hstem
          45 663 vstem
          376 -116 rmoveto
          85 44 247 185 251 vvcurveto
          188 -149 144 -183 -183 -148 -144 -188 -250 246 -186 85 -44 vhcurveto
          endchar
        </CharString>
        <CharString name="orn.022">
          -143 220 246 hstem
          48 301 vstem
          171 220 rmoveto
          98 80 83 40 40 -80 83 -98 -81 -42 -55 -68 -68 42 -55 81 hvcurveto
          endchar
        </CharString>
        <CharString name="oslash">
          117 callsubr
          29 callgsubr
          hintmask 00000000
          hintmask 10011100
          411 482 rmoveto
          44 83 rlineto
          -73 hlineto
          -30 -55 rlineto
          hintmask 01101100
          12 callgsubr
          hintmask 10101100
          -6 26 32 -2 40 hhcurveto
          188 13 52 211 hvcurveto
          hintmask 10011100
          122 -4 69 -40 36 vhcurveto
          hintmask 10101100
          -31 callgsubr
        </CharString>
        <CharString name="oslashacute">
          117 callsubr
          112 141 29 callgsubr
          hintmask 10101110
          383 738 -66 callsubr
          hintmask 10011110
          131 -120 rmoveto
          44 83 rlineto
          -73 hlineto
          -30 -55 rlineto
          hintmask 01101110
          12 callgsubr
          hintmask 10101110
          -6 26 32 -2 40 hhcurveto
          188 13 52 211 hvcurveto
          hintmask 10011110
          122 -4 69 -40 36 vhcurveto
          hintmask 10101110
          -31 callgsubr
        </CharString>
        <CharString name="otilde">
          -58 callsubr
          110 -43 callsubr
          54 85 -47 -13 callsubr
          -48 85 hintmask 00000000
          hintmask 11101010
          418 743 -23 callgsubr
          hintmask 11101001
          -164 -751 -104 callsubr
          endchar
        </CharString>
        <CharString name="p">
          -11 -8 76 374 76 -8 -20 hstemhm
          72 85 225 85 hintmask 11011000
          72 -196 rmoveto
          85 258 6 hlineto
          -53 23 48 -17 70 87 callsubr
          -58 -60 -11 -67 -25 hvcurveto
          -6 hlineto
          hintmask 10111000
          91 callgsubr
          hlineto
          197 -442 rmoveto
          -58 -30 17 50 -14 hvcurveto
          -8 27 -2 39 54 vvcurveto
          hintmask 11011000
          55 1 41 11 32 vhcurveto
          42 13 31 17 56 hhcurveto
          99 14 -19 -168 hvcurveto
          hintmask 10111000
          -168 -14 -19 -99 vhcurveto
          endchar
        </CharString>
        <CharString name="paragraph">
          -13 0 callsubr
          hstem
          253 66 58 65 vstem
          253 -144 rmoveto
          66 832 -66 hlineto
          -192 -11 -31 -203 -203 11 -29 192 hvcurveto
          124 -366 rmoveto
          65 832 -65 hlineto
          endchar
        </CharString>
        <CharString name="parenleft">
          -248 -150 893 hstem
          69 83 vstem
          201 -150 rmoveto
          65 hlineto
          -75 110 -39 50 287 vvcurveto
          286 39 50 75 110 vhcurveto
          -65 hlineto
          -98 -126 -34 -58 -262 vvcurveto
          -263 34 -54 98 -130 vhcurveto
          endchar
        </CharString>
        <CharString name="parenleft.ss02">
          23 callgsubr
          -204 145 -144 207 hvcurveto
          endchar
        </CharString>
        <CharString name="parenright">
          -248 -150 893 hstem
          131 83 vstem
          18 -150 rmoveto
          65 hlineto
          98 130 33 54 263 vvcurveto
          262 -34 58 -97 126 vhcurveto
          -65 hlineto
          75 -110 38 -50 -286 vvcurveto
          -287 -38 -50 -75 -110 vhcurveto
          endchar
        </CharString>
        <CharString name="parenright.ss02">
          -135 21 -21 696 -20 hstem
          0 352 vstem
          0 vmoveto
          207 145 144 204 88 callsubr
          hvcurveto
          endchar
        </CharString>
        <CharString name="partialdiff">
          -23 -8 72 382 71 0 -20 29 callgsubr
          hintmask 11011000
          116 callsubr
          64 -5 57 -11 63 hvcurveto
          -21 115 -54 107 -75 67 rrcurveto
          -92 -4 hlineto
          hintmask 10111000
          70 -66 48 -77 30 -101 -4 -3 rcurveline
          hintmask 11011000
          17 -27 -39 8 -46 hhcurveto
          -163 100 callsubr
          72 vmoveto
          -115 0 26 164 168 0 24 115 116 0 -48 -144 -164 0 -26 -116 hvcurveto
          endchar
        </CharString>
        <CharString name="percent">
          214 -8 51 -22 -21 311 51 -37 52 267 52 -8 -20 hstemhm
          52 61 134 60 132 61 133 61 hintmask 1010101111000000
          180 311 22 callgsubr
          hintmask 0110011111000000
          -36 -311 rmoveto
          62 hlineto
          397 688 rlineto
          -63 hlineto
          -360 -326 rmoveto
          -62 -5 5 136 hvcurveto
          hintmask 1010101111000000
          136 5 5 62 63 4 -5 -136 vhcurveto
          hintmask 0110011111000000
          -136 -6 -5 -61 vhcurveto
          hintmask 1001101111000000
          387 -370 22 callgsubr
          51 vmoveto
          -62 -5 5 136 136 5 5 62 63 3 -5 -136 -136 -4 -5 -62 hvcurveto
          endchar
        </CharString>
        <CharString name="period">
          -316 0 100 hstem
          60 97 vstem
          60 hmoveto
          97 100 -97 hlineto
          endchar
        </CharString>
        <CharString name="periodcentered">
          -316 249 100 hstem
          60 97 vstem
          60 249 -85 callsubr
        </CharString>
        <CharString name="perthousand">
          349 -8 48 -19 -21 281 47 32 47 241 48 -8 -20 hstemhm
          52 56 113 55 66 55 113 56 39 55 113 56 hintmask 1011101111110000
          164 360 rmoveto
          104 8 32 136 135 -8 33 -104 -103 -9 -33 -135 -136 9 -32 103 hvcurveto
          hintmask 0101011100000000
          -88 -360 rmoveto
          62 hlineto
          405 688 rlineto
          -63 hlineto
          -316 -281 rmoveto
          -52 -4 3 118 hvcurveto
          hintmask 0000101100000000
          117 4 3 52 54 3 -3 -117 vhcurveto
          hintmask 0101011100000000
          -118 -5 -3 -52 vhcurveto
          hintmask 1010000011110000
          290 -415 rmoveto
          38 callsubr
          263 hmoveto
          38 callsubr
          -263 48 rmoveto
          39 callgsubr
          263 hmoveto
          39 callgsubr
          endchar
        </CharString>
        <CharString name="pi">
          -10 21 -21 438 72 hstem
          73 85 206 85 vstem
          364 hmoveto
          85 510 -376 -510 85 438 206 hlineto
          endchar
        </CharString>
        <CharString name="plus">
          -21 218 70 hstem
          220 70 vstem
          220 62 45 callsubr
          endchar
        </CharString>
        <CharString name="plusminus">
          -21 15 70 260 70 hstem
          220 70 vstem
          220 189 45 callsubr
          -154 -330 rmoveto
          42 callsubr
          endchar
        </CharString>
        <CharString name="product">
          99 610 78 hstem
          82 90 286 90 vstem
          458 -190 rmoveto
          90 878 -466 -878 90 800 286 hlineto
          endchar
        </CharString>
        <CharString name="q">
          -11 -8 76 374 76 -8 -20 28 callsubr
          hintmask 11011000
          363 -196 rmoveto
          85 hlineto
          hintmask 10111000
          706 -77 vlineto
          hintmask 11011000
          -3 -70 rlineto
          -6 hlineto
          67 -25 -59 11 -59 hhcurveto
          -129 -36 -55 -208 -207 34 -56 129 69 48 17 53 24 hvcurveto
          5 hlineto
          -111 6 112 callsubr
          168 168 14 19 99 54 31 -15 -37 13 hvcurveto
          12 -35 1 -42 -58 vvcurveto
          -55 -1 -41 -9 -29 vhcurveto
          -45 -14 -30 -17 -57 hhcurveto
          endchar
        </CharString>
        <CharString name="question">
          -59 callsubr
        </CharString>
        <CharString name="question.case">
          -59 callsubr
        </CharString>
        <CharString name="questiondown">
          -145 -186 78 518 100 hstemhm
          54 90 73 97 -88 80 hintmask 00000000
          hintmask 11110000
          217 107 callsubr
          17 -696 rmoveto
          48 70 7 9 50 65 callsubr
          58 24 hvcurveto
          hintmask 11101000
          24 10 rlineto
          46 21 21 85 callsubr
          -41 -17 rlineto
          -61 64 callsubr
        </CharString>
        <CharString name="questiondown.case">
          -99 -8 78 518 100 hstemhm
          58 90 74 97 -89 80 hintmask 00000000
          hintmask 11110000
          222 588 rmoveto
          97 100 -97 hlineto
          16 -696 rmoveto
          49 70 7 9 49 65 callsubr
          59 24 hvcurveto
          hintmask 11101000
          24 10 rlineto
          46 21 20 85 callsubr
          -40 -17 rlineto
          -62 64 callsubr
        </CharString>
        <CharString name="quotedbl">
          -197 442 246 hstem
          57 82 57 82 vstem
          68 442 rmoveto
          59 hlineto
          12 18 callgsubr
          151 -173 rmoveto
          59 hlineto
          11 18 callgsubr
          endchar
        </CharString>
        <CharString name="quotedblbase">
          -162 -120 39 81 96 hstem
          59 94 64 94 vstem
          42 -81 rmoveto
          -39 vlineto
          96 15 14 callgsubr
          -9 -13 -46 vhcurveto
          157 hmoveto
          -39 vlineto
          97 15 27 108 hvcurveto
          81 -94 -96 37 -17 vlineto
          -51 -8 -13 -47 vhcurveto
          endchar
        </CharString>
        <CharString name="quotedblleft">
          -168 472 96 81 39 hstem
          55 94 64 26 callsubr
          158 -81 rmoveto
          94 96 -38 17 hlineto
          51 9 13 46 vhcurveto
          39 vlineto
          -96 -15 -27 -108 hvcurveto
          endchar
        </CharString>
        <CharString name="quotedblright">
          -168 472 39 81 96 hstem
          57 94 64 94 vstem
          40 511 rmoveto
          -39 vlineto
          97 14 14 callgsubr
          -8 -13 -47 vhcurveto
          157 hmoveto
          -39 vlineto
          97 15 27 108 hvcurveto
          81 -94 -96 37 -17 vlineto
          -51 -8 -13 -47 vhcurveto
          endchar
        </CharString>
        <CharString name="quoteleft">
          -325 472 96 81 39 hstem
          55 26 callsubr
          endchar
        </CharString>
        <CharString name="quoteright">
          -325 472 39 81 96 hstem
          57 94 vstem
          40 511 rmoveto
          -39 vlineto
          97 14 14 callgsubr
          -8 -13 -47 vhcurveto
          endchar
        </CharString>
        <CharString name="quotesinglbase">
          -319 -120 39 81 96 hstem
          59 94 vstem
          42 -81 rmoveto
          -39 vlineto
          96 15 14 callgsubr
          -9 -13 -46 vhcurveto
          endchar
        </CharString>
        <CharString name="quotesingle">
          84 callsubr
          68 442 rmoveto
          59 hlineto
          12 18 callgsubr
          endchar
        </CharString>
        <CharString name="r">
          16 callsubr
          hstemhm
          72 85 hintmask 11010000
          72 hmoveto
          -72 callsubr
          hintmask 10110000
          78 callgsubr
          endchar
        </CharString>
        <CharString name="racute">
          16 callsubr
          112 141 hstemhm
          72 85 hintmask 11011000
          127 602 -99 callgsubr
          -55 -607 rmoveto
          -72 callsubr
          hintmask 10111000
          78 callgsubr
          endchar
        </CharString>
        <CharString name="radical">
          33 -106 876 hstem
          23 520 vstem
          245 -106 rmoveto
          101 hlineto
          197 876 rlineto
          -81 hlineto
          -172 -784 -144 345 -123 -55 19 -52 52 23 rlineto
          endchar
        </CharString>
        <CharString name="rcaron">
          16 callsubr
          114 139 hstemhm
          72 85 hintmask 11011000
          121 604 -98 callgsubr
          40 -737 rmoveto
          -72 callsubr
          hintmask 10111000
          78 callgsubr
          endchar
        </CharString>
        <CharString name="rcommaaccent">
          -201 -19 callsubr
          83 -21 433 85 -8 -20 hstemhm
          72 85 -81 94 hintmask 11110100
          72 hmoveto
          -72 callsubr
          hintmask 11101100
          78 callgsubr
          hintmask 11110010
          -13 -735 -87 callgsubr
        </CharString>
        <CharString name="registered">
          124 -8 40 268 48 131 49 127 41 hstem
          76 42 93 55 131 55 85 43 vstem
          327 696 rmoveto
          -244 -7 -46 -306 -306 7 -46 244 245 8 46 306 306 -8 46 -245 hvcurveto
          -664 vmoveto
          -202 -7 17 295 294 7 17 202 204 6 -17 -294 -295 -6 -17 -204 hvcurveto
          125 383 rmoveto
          63 -7 50 -93 vhcurveto
          -141 -370 55 142 73 hlineto
          12 hlineto
          49 -142 rlineto
          60 hlineto
          -56 152 rlineto
          42 16 6 45 44 vvcurveto
          -118 -67 rmoveto
          -68 131 73 hlineto
          52 6 -18 -46 -45 -4 -22 -59 hvcurveto
          endchar
        </CharString>
        <CharString name="rightCloseDialog">
          91 58 callsubr
          -1 187 378 60 vstem
          624 688 rmoveto
          -625 -60 565 -568 -190 hlineto
          -188 -187 rlineto
          -85 vlineto
          213 212 rlineto
          165 hlineto
          60 hlineto
          -438 60 rmoveto
          -187 -60 187 hlineto
          endchar
        </CharString>
        <CharString name="rightOpenDialog">
          92 58 callsubr
          565 60 vstem
          625 688 rmoveto
          -626 -60 566 -568 -566 -60 566 hlineto
          60 hlineto
          endchar
        </CharString>
        <CharString name="ring">
          -263 607 112 callgsubr
          hstem
          16 113 callgsubr
          vstem
          133 607 -86 callgsubr
          endchar
        </CharString>
        <CharString name="s">
          -93 -51 callsubr
          hstem
          45 83 183 -57 callsubr
          endchar
        </CharString>
        <CharString name="sacute">
          -93 -51 callsubr
          84 141 hstem
          45 83 183 83 vstem
          181 602 -99 callgsubr
          42 -615 -98 callsubr
          endchar
        </CharString>
        <CharString name="sacute.loclPLK">
          -93 -51 callsubr
          84 141 hstem
          45 83 183 83 vstem
          181 602 -76 callsubr
          42 -615 -98 callsubr
          endchar
        </CharString>
        <CharString name="scaron">
          66 callgsubr
          178 604 -98 callgsubr
          134 -745 -98 callsubr
          endchar
        </CharString>
        <CharString name="scedilla">
          -93 -7 71 382 72 hstem
          45 83 183 83 vstem
          394 144 rmoveto
          115 -31 20 -68 8 vhcurveto
          -113 14 rlineto
          -45 5 -9 7 58 vvcurveto
          68 33 7 68 47 51 -4 -7 42 vhcurveto
          69 vlineto
          8 -35 -60 6 -48 hhcurveto
          -110 -71 -20 -130 -90 19 -39 77 -9 hvcurveto
          114 -15 rlineto
          46 -5 10 -3 -66 vvcurveto
          -54 -10 -23 -88 -52 -51 3 7 -51 vhcurveto
          -69 vlineto
          34 -6 49 -4 45 -2 -59 -178 rcurveline
          -5 82 vlineto
          38 183 rlineto
          96 4 50 32 115 vvcurveto
          endchar
        </CharString>
        <CharString name="scircumflex">
          66 callgsubr
          85 604 -107 callgsubr
          138 -618 -98 callsubr
          endchar
        </CharString>
        <CharString name="scommaaccent">
          -93 -19 callsubr
          54 72 382 72 hstem
          45 83 53 94 36 -57 callsubr
          -59 -217 -87 callgsubr
        </CharString>
        <CharString name="second">
          -194 0 callsubr
          hstem
          55.5 88 55 88 vstem
          46 382 41 callgsubr
          124 -306 41 callgsubr
          endchar
        </CharString>
        <CharString name="section">
          71 -171 78 711 78 hstemhm
          51 84 -13 87 184 87 -13 85 hintmask 11011000
          282 -171 rmoveto
          122 76 29 128 43 -4 32 -19 24 hvcurveto
          hintmask 11010100
          78 12 17 68 83 vvcurveto
          111 -42 21 -89 28 vhcurveto
          -151 47 rlineto
          -50 16 -11 9 60 vvcurveto
          68 37 10 96 52 59 -4 -5 25 vhcurveto
          73 vlineto
          6 -23 -64 8 -70 hhcurveto
          -122 -77 -29 -129 -43 4 -32 19 -25 hvcurveto
          hintmask 11101000
          -78 -12 -16 -66 -84 vvcurveto
          -111 42 -21 92 -28 vhcurveto
          154 -48 rlineto
          44 -14 10 -10 -59 vvcurveto
          -68 -37 -10 -96 -53 -58 4 5 -24 vhcurveto
          -73 vlineto
          hintmask 11011000
          -6 22 64 -8 71 hhcurveto
          hintmask 11100100
          131 306 rmoveto
          -9 -15 5 6 -21 hvcurveto
          -182 56 rlineto
          -40 12 -11 15 63 vvcurveto
          67 22 29 33 9 15 -4 -7 23 vhcurveto
          185 -57 rlineto
          33 -10 12 -15 -63 vvcurveto
          -68 -21 -29 -33 vhcurveto
          endchar
        </CharString>
        <CharString name="semicolon">
          -316 -123 40 83 100 310 100 hstem
          59 98 vstem
          60 107 callsubr
          -19 -593 35 callsubr
        </CharString>
        <CharString name="seven">
          -44 21 -21 610 78 hstem
          33 416 vstem
          111 hmoveto
          98 hlineto
          240 618 rlineto
          70 -416 -78 319 vlineto
          endchar
        </CharString>
        <CharString name="seven.dnom">
          -240 21 -21 325 53 hstem
          21 247 vstem
          64 hmoveto
          25 callgsubr
          endchar
        </CharString>
        <CharString name="seven.numr">
          -240 633 53 hstem
          21 247 vstem
          64 308 rmoveto
          25 callgsubr
          endchar
        </CharString>
        <CharString name="seven.tnum">
          41 21 -21 610 78 hstem
          63 447 vstem
          154 hmoveto
          98 hlineto
          258 618 rlineto
          70 -447 -78 350 vlineto
          endchar
        </CharString>
        <CharString name="seveneighths">
          195 73 callsubr
          115 52 250 53 hstemhm
          21 247 147 33 callgsubr
          -18 callsubr
          hintmask 0111111001000000
          86 hmoveto
          -15 callgsubr
          -417 -380 rmoveto
          25 callgsubr
          hintmask 1011101001000000
          349 -637 -34 callgsubr
          hintmask 1011100110000000
          -53 callgsubr
          hintmask 1011101001000000
          -11 callsubr
          hintmask 1011100110000000
          -49 callsubr
          hintmask 1011101001000000
          -50 callgsubr
        </CharString>
        <CharString name="six">
          37 118 callsubr
          91 275 88 vstem
          299 -8 rmoveto
          183 35 53 174 170 -58 25 -141 -107 -35 -28 -22 -17 hvcurveto
          -5 hlineto
          216 17 38 156 40 65 -5 -8 54 vhcurveto
          73 vlineto
          10 -57 -73 8 -47 hhcurveto
          -132 -64 -29 -95 -29 hvcurveto
          -17 -52 -4 -77 -106 vvcurveto
          -111 4 -75 14 -44 vhcurveto
          -99 29 63 -16 126 8 callgsubr
        </CharString>
        <CharString name="six.dnom">
          -197 -4 52 132 52 98 53 hstem
          38 62 146 59 vstem
          177 -4 rmoveto
          106 22 29 98 96 -35 13 -77 -45 callgsubr
        </CharString>
        <CharString name="six.numr">
          -197 304 52 132 25 -25 52 98 53 hstemhm
          38 62 146 59 hintmask 11011100
          177 304 rmoveto
          106 22 29 98 hvcurveto
          hintmask 10111100
          96 -35 13 -77 vhcurveto
          hintmask 11011100
          -45 callgsubr
        </CharString>
        <CharString name="six.ss01">
          35 -8 78 267 77 274 -20 hstem
          51 91 286 89 vstem
          284 -8 rmoveto
          189 44 68 144 147 -34 63 -157 -79 -39 -10 -21 -28 hvcurveto
          -4 2 48 120 95 102 85 75 rlinecurve
          6 -107 vlineto
          -110 -97 -136 -172 -196 vvcurveto
          -169 45 -62 188 vhcurveto
          78 vmoveto
          -106 -36 11 136 100 39 20 103 107 37 -3 -131 -111 -28 -22 -116 hvcurveto
          endchar
        </CharString>
        <CharString name="six.tnum">
          41 118 callsubr
          90 276 88 vstem
          299 -8 rmoveto
          182 36 53 174 170 -58 25 -141 -99 -41 -24 -26 -19 hvcurveto
          -6 hlineto
          216 18 38 156 40 65 -5 -8 53 vhcurveto
          73 vlineto
          10 -54 -74 8 -48 hhcurveto
          -120 -64 -24 -76 -33 hvcurveto
          -24 -54 -5 -84 -121 vvcurveto
          -111 3 -76 15 -47 vhcurveto
          -95 28 63 -16 127 8 callgsubr
        </CharString>
        <CharString name="slash">
          114 callgsubr
          6 -55 rmoveto
          77 hlineto
          241 798 rlineto
          -77 hlineto
          endchar
        </CharString>
        <CharString name="space">
          -318 endchar
        </CharString>
        <CharString name="sterling">
          -15 0 78 239 77 224 78 hstem
          111 90 vstem
          201 78 rmoveto
          239 198 77 -198 16 vlineto
          100 7 62 37 25 vhcurveto
          17 23 36 4 53 hhcurveto
          27 46 -4 -6 33 hvcurveto
          74 vlineto
          8 -30 -54 6 -45 hhcurveto
          -180 -43 -70 -218 hvcurveto
          -14 -65 -77 65 -239 -65 -78 427 78 vlineto
          endchar
        </CharString>
        <CharString name="summation">
          83 -190 78 722 78 hstem
          75 466 vstem
          75 -190 rmoveto
          466 78 -357 hlineto
          264 361 -264 361 rlineto
          357 78 -466 -74 hlineto
          265 -365 -265 -364 rlineto
          endchar
        </CharString>
        <CharString name="t">
          -210 21 -21 438 72 hstem
          110 85 vstem
          110 hmoveto
          85 2 callsubr
          hlineto
          endchar
        </CharString>
        <CharString name="tbar">
          -210 21 -21 215 71 152 72 hstem
          110 85 vstem
          299 438 rmoveto
          72 -104 148 -85 -148 -88 -72 88 -152 -84 -71 84 -215 85 215 103 71 -103 152 vlineto
          endchar
        </CharString>
        <CharString name="tcaron">
          -210 21 -21 438 72 -68 68 178 -20 hstemhm
          110 85 150 83 hintmask 00000000
          hintmask 10111100
          331 442 rmoveto
          59 hlineto
          38 173 rlineto
          73 -83 -73 vlineto
          -235 -615 rmoveto
          85 hlineto
          hintmask 11011100
          2 callsubr
          vlineto
          endchar
        </CharString>
        <CharString name="thorn">
          -11 -8 76 374 76 hstem
          72 85 225 85 vstem
          72 -190 rmoveto
          85 252 6 hlineto
          -53 23 49 -17 69 87 callsubr
          -65 -51 -15 -58 -23 hvcurveto
          -6 298 -85 hlineto
          197 -675 rmoveto
          -59 -30 18 54 -14 hvcurveto
          -7 25 -2 39 51 vvcurveto
          54 1 41 10 30 vhcurveto
          46 14 31 16 56 hhcurveto
          99 14 -19 -168 -168 -14 -19 -99 hvcurveto
          endchar
        </CharString>
        <CharString name="three">
          -16 -8 78 239 78 231 78 hstemhm
          358 91 -84 91 hintmask 11101000
          225 -8 rmoveto
          191 40 71 120 113 -42 39 -69 53 callgsubr
          -54 -76 -7 -10 -49 vhcurveto
          -73 vlineto
          7 48 66 86 callsubr
          -110 -78 110 hlineto
          hintmask 11101000
          81 29 -30 -92 -105 -50 -12 -99 -42 72 callgsubr
        </CharString>
        <CharString name="three.dnom">
          -224 -4 52 117 52 113 53 hstemhm
          206 61 -58 62 hintmask 11101000
          135 -4 -51 callgsubr
        </CharString>
        <CharString name="three.numr">
          -224 304 52 117 52 113 53 hstemhm
          206 61 -58 62 hintmask 11101000
          135 304 -51 callgsubr
        </CharString>
        <CharString name="three.tnum">
          41 -8 78 239 78 231 78 hstemhm
          392 91 -84 90 hintmask 11101000
          259 -8 rmoveto
          190 40 71 120 113 -42 39 -68 53 callgsubr
          -55 -75 -7 -10 -49 vhcurveto
          -73 vlineto
          7 47 67 86 callsubr
          -111 -78 111 hlineto
          hintmask 11101000
          80 30 -30 -92 -105 -51 -12 -99 -41 72 callgsubr
        </CharString>
        <CharString name="threeeighths">
          253 73 callsubr
          88 52 -25 52 90 52 113 53 -3 -20 hstemhm
          206 61 -58 62 202 33 callgsubr
          -18 callsubr
          hintmask 1011011001100100
          135 304 rmoveto
          110 26 35 70 61 -24 22 -41 8 hvcurveto
          2 vlineto
          hintmask 1010111010100100
          40 9 21 25 56 vvcurveto
          71 -34 28 -97 -33 -45 -5 -5 -29 vhcurveto
          -49 vlineto
          4 29 37 2 26 hhcurveto
          63 22 -6 -50 -49 -24 -8 -34 hvcurveto
          -65 -52 hlineto
          hintmask 1011011001100100
          65 hlineto
          45 16 -12 -48 -52 -27 -5 -57 -24 -41 3 3 -33 hvcurveto
          -49 vlineto
          -6 32 44 -3 32 hhcurveto
          hintmask 0110110101100100
          8 -304 rmoveto
          -15 callgsubr
          hintmask 1010111001100100
          72 -692 -34 callgsubr
          hintmask 1010111001011000
          -53 callgsubr
          hintmask 1010111001100100
          -11 callsubr
          hintmask 1010111001011000
          -49 callsubr
          hintmask 1010111001100100
          -50 callgsubr
        </CharString>
        <CharString name="threequarters">
          180 0 134 -56 56 174 56 114 52 110 56 -8 -20 hstemhm
          101 128 -16 63 -59 63 279 62 hintmask 1011100011000000
          48 371 rmoveto
          -52 vlineto
          -6 32 42 -5 29 hhcurveto
          106 23 40 69 51 -20 25 -31 11 hvcurveto
          4 vlineto
          hintmask 1011100101000000
          30 14 17 24 96 callsubr
          -29 -42 -5 -6 -31 vhcurveto
          -52 vlineto
          4 35 34 3 23 hhcurveto
          52 20 -8 -47 -46 -21 -9 -25 hvcurveto
          hintmask 1011101001000000
          -66 -52 hlineto
          hintmask 1011100011000000
          66 hlineto
          36 14 -14 -44 -49 -24 -7 -48 -19 -37 3 4 -41 hvcurveto
          96 -371 rmoveto
          63 hlineto
          hintmask 1011010011000000
          395 688 rlineto
          -63 hlineto
          20 -688 rmoveto
          62 hlineto
          hintmask 0111100011000000
          78 45 vlineto
          hintmask 1011100011000000
          56 -45 126 -46 vlineto
          -15 -126 rlineto
          -99 hlineto
          115 239 rlineto
          -66 hlineto
          hintmask 0111100011000000
          -116 -249 rlineto
          -46 165 vlineto
          endchar
        </CharString>
        <CharString name="tilde">
          -179 628 -43 callsubr
          13 -13 callsubr
          hintmask 10110000
          339 -26 callsubr
        </CharString>
        <CharString name="tildecomb">
          628 -43 callsubr
          -340 -13 callsubr
          hintmask 10110000
          -14 -26 callsubr
        </CharString>
        <CharString name="tildecomb.case">
          773 -43 callsubr
          -340 73 callgsubr
          hintmask 10110000
          -14 69 callgsubr
          hintmask 01110000
          -101 callsubr
          hintmask 10110000
          -93 callgsubr
          endchar
        </CharString>
        <CharString name="trademark">
          126 385 74 186 43 hstem
          124 47 128 43 199 45 vstem
          124 385 rmoveto
          47 260 82 43 -211 -43 82 hlineto
          175 -260 rmoveto
          43 228 4 hlineto
          79 -228 rlineto
          35 hlineto
          77 229 rlineto
          4 -229 45 303 -62 hlineto
          -78 -229 rlineto
          -5 hlineto
          -79 229 rlineto
          -63 hlineto
          endchar
        </CharString>
        <CharString name="two">
          -5 0 78 540 78 hstem
          57 88 234 90 vstem
          145 123 rmoveto
          46 1 25 8 19 vhcurveto
          7 14 11 10 20 9 58 28 59 28 56 26 rrcurveto
          75 36 29 38 117 vvcurveto
          162 -89 15 -113 11 callsubr
          -54 -26 -49 55 callgsubr
        </CharString>
        <CharString name="two.dnom">
          -217 0 93 callgsubr
          72 -48 callgsubr
        </CharString>
        <CharString name="two.numr">
          -217 308 93 callgsubr
          380 -48 callgsubr
        </CharString>
        <CharString name="two.tnum">
          41 0 78 540 78 hstem
          82 88 234 90 vstem
          170 123 rmoveto
          44 1 25 8 18 vhcurveto
          6 16 12 10 20 10 58 28 58 28 56 26 rrcurveto
          75 36 30 38 117 vvcurveto
          162 -90 15 -112 11 callsubr
          -55 -26 -48 55 callgsubr
        </CharString>
        <CharString name="u">
          -64 callsubr
          20 callsubr
          hintmask 00000000
          hintmask 01111000
          378 hmoveto
          76 510 -85 -265 hlineto
          hintmask 10111000
          -103 callsubr
          endchar
        </CharString>
        <CharString name="uacute">
          -64 callsubr
          112 141 20 callsubr
          hintmask 10111100
          229 602 -99 callgsubr
          hintmask 01111100
          149 -607 -61 callgsubr
          hintmask 10111100
          -103 callsubr
          endchar
        </CharString>
        <CharString name="ubreve">
          -64 callsubr
          111 68 callsubr
          391 -75 callgsubr
          hintmask 01111001
          -13 -743 -61 callgsubr
          hintmask 10111001
          -103 callsubr
          endchar
        </CharString>
        <CharString name="ucircumflex">
          -64 callsubr
          114 139 20 callsubr
          hintmask 10111100
          129 604 -107 callgsubr
          hintmask 01111100
          249 -610 -61 callgsubr
          hintmask 10111100
          -103 callsubr
          endchar
        </CharString>
        <CharString name="udieresis">
          -64 callsubr
          156 82 hstemhm
          71 85 -25 79 104 79 -24 85 hintmask 00000000
          hintmask 10110110
          131 646 -91 callsubr
          hintmask 01111001
          64 -728 -61 callgsubr
          hintmask 10111001
          -103 callsubr
          endchar
        </CharString>
        <CharString name="ugrave">
          -64 callsubr
          112 141 20 callsubr
          hintmask 10111100
          241 602 -91 callgsubr
          hintmask 01111100
          241 -738 -61 callgsubr
          hintmask 10111100
          -103 callsubr
          endchar
        </CharString>
        <CharString name="uhorn">
          32 callsubr
          20 callsubr
          32 60 hintmask 10111100
          486 606 -78 callgsubr
          -58 -265 hlineto
          -103 callsubr
          hintmask 01111100
          -38 callgsubr
          endchar
        </CharString>
        <CharString name="uhungarumlaut">
          -64 callsubr
          118 128 20 callsubr
          hintmask 10111100
          159 608 -83 callsubr
          hintmask 01111100
          54 -613 -61 callgsubr
          hintmask 10111100
          -103 callsubr
          endchar
        </CharString>
        <CharString name="umacron">
          -64 callsubr
          175 77 hstemhm
          71 85 -4 222 -5 85 hintmask 00000000
          hintmask 10110100
          152 665 -56 callgsubr
          hintmask 01111010
          226 -742 -61 callgsubr
          hintmask 10111010
          -103 callsubr
          endchar
        </CharString>
        <CharString name="underscore">
          -188 -172 70 hstem
          0 344 vstem
          -172 vmoveto
          344 70 -344 hlineto
          endchar
        </CharString>
        <CharString name="underscoredbl">
          -188 -273 69 44 69 hstem
          0 344 vstem
          -160 vmoveto
          344 69 -344 hlineto
          -182 vmoveto
          344 69 -344 hlineto
          endchar
        </CharString>
        <CharString name="uni00AD">
          36 callsubr
        </CharString>
        <CharString name="uni00B2">
          -203 317 56 267 56 hstem
          48 60 110 63 vstem
          108 396 rmoveto
          32 5 8 22 11 vhcurveto
          32 15 30 14 26 13 rrcurveto
          1 callgsubr
          39 39 3 20 hhcurveto
          52 14 -7 -42 -32 -7 -11 -28 -14 hvcurveto
          -32 -16 -31 -15 54 callsubr
        </CharString>
        <CharString name="uni00B3">
          -208 308 56 114 52 110 56 hstemhm
          95 129 -16 63 -59 63 hintmask 11100100
          146 308 rmoveto
          106 103 callgsubr
          hintmask 11101000
          30 14 17 24 96 callsubr
          -29 -43 -5 -6 -30 vhcurveto
          -52 vlineto
          4 35 34 3 22 hhcurveto
          53 20 -8 -47 -46 -21 -9 -26 hvcurveto
          hintmask 11110000
          -66 -52 hlineto
          hintmask 11100100
          66 hlineto
          37 14 -14 102 callsubr
          -52 vlineto
          -6 33 41 -5 30 hhcurveto
          endchar
        </CharString>
        <CharString name="uni00B5">
          -40 callsubr
        </CharString>
        <CharString name="uni00B9">
          -303 0 callsubr
          hstem
          103 62 vstem
          -35 callsubr
          endchar
        </CharString>
        <CharString name="uni0162">
          -32 21 -21 607 81 hstem
          205 90 vstem
          23 688 rmoveto
          -81 182 -607 14 92 callsubr
          16 607 183 81 hlineto
          endchar
        </CharString>
        <CharString name="uni0163">
          -210 21 -21 438 72 hstem
          110 85 vstem
          195 510 rmoveto
          148 -85 -148 -88 -72 88 -438 12 92 callsubr
          13 438 104 72 hlineto
          endchar
        </CharString>
        <CharString name="uni018F">
          75 -8 78 239 78 231 78 hstem
          63 90 301 90 vstem
          290 696 rmoveto
          -53 -66 -7 -10 -41 hvcurveto
          -74 vlineto
          8 38 57 5 43 hhcurveto
          160 23 -21 -210 2 hvcurveto
          -390 -43 hlineto
          -292 12 -60 228 228 13 60 292 293 -34 59 -220 vhcurveto
          13 -626 rmoveto
          -132 -16 6 233 -2 hvcurveto
          301 hlineto
          -233 -2 -16 -6 -133 hhcurveto
          endchar
        </CharString>
        <CharString name="uni019D">
          21 callsubr
          -500 -4 vlineto
          -283 500 rlineto
          -93 -763 hlineto
          83 callsubr
          hintmask 11101100
          564 4 vlineto
          289 -512 rlineto
          87 688 hlineto
          endchar
        </CharString>
        <CharString name="uni01C4">
          584 71 callsubr
          809 749 -98 callgsubr
          -638 -882 rmoveto
          -42 callsubr
        </CharString>
        <CharString name="uni01C5">
          509 0 72 -72 78 360 72 94 139 -133 78 hstemhm
          82 90 270 90 hintmask 00000000
          hintmask 10110110
          780 604 -98 callgsubr
          -609 -737 rmoveto
          -30 callsubr
          hvcurveto
          hintmask 01101110
          19 callsubr
          vhcurveto
          -36 callgsubr
          hintmask 10101110
          370 -78 rmoveto
          -86 callsubr
          endchar
        </CharString>
        <CharString name="uni01C6">
          434 -8 76 -68 72 366 72 -68 76 86 139 28 callsubr
          hintmask 00000000
          hintmask 10101110
          -10 callgsubr
          hintmask 01011110
          -58 callgsubr
          hintmask 10101110
          51 callsubr
          hintmask 01101110
          479 612 -98 callgsubr
          -45 -737 rmoveto
          -86 callsubr
          hintmask 10011110
          -312 2 -76 callgsubr
          endchar
        </CharString>
        <CharString name="uni01C7">
          240 0 75 callgsubr
          432 90 6 callsubr
          403 -614 -74 callgsubr
        </CharString>
        <CharString name="uni01C8">
          159 -197 67 130 81 429 -20 161 92 -55 -20 hstemhm
          82 91 360 86 94 callsubr
          531 -1 callgsubr
          -449 -743 rmoveto
          356 81 -265 hlineto
          hintmask 11101110
          607 -91 vlineto
          370 -885 -67 callsubr
        </CharString>
        <CharString name="uni01C9">
          45 callgsubr
          51 callgsubr
          228 -92 rmoveto
          90 92 -90 hlineto
          -79 -940 -67 callsubr
        </CharString>
        <CharString name="uni01CA">
          410 0 74 -53 30 callsubr
          226 90 hintmask 01011110
          462 hmoveto
          -71 callsubr
          hintmask 10101110
          91 callsubr
          482 -438 -74 callgsubr
        </CharString>
        <CharString name="uni01CB">
          329 -197 67 151 -60 callsubr
          22 176 -37 92 -55 -20 75 callsubr
          154 86 -18 callsubr
          hintmask 1110101110000000
          701 -1 callgsubr
          -239 -743 rmoveto
          87 hlineto
          hintmask 1110011110000000
          688 -87 -500 -4 vlineto
          -283 500 rlineto
          -93 -688 87 hlineto
          hintmask 1101001110000000
          91 callsubr
          449 -709 rmoveto
          127 40 11 134 hvcurveto
          hintmask 1110011110000000
          562 -86 -585 -5 callsubr
          endchar
        </CharString>
        <CharString name="uni01CC">
          225 -197 67 151 -21 441 69 -69 77 133 92 58 callgsubr
          144 86 hintmask 11011111
          597 -1 callgsubr
          -227 -743 -41 callsubr
          hintmask 11101111
          -48 callsubr
          hintmask 11011111
          -73 callgsubr
          148 -488 rmoveto
          127 40 11 134 hvcurveto
          hintmask 11101111
          562 -86 -585 -5 callsubr
          endchar
        </CharString>
        <CharString name="uni01CD">
          -77 callsubr
          61 139 hstem
          22 549 vstem
          252 749 -98 callgsubr
          315 -882 -100 callsubr
        </CharString>
        <CharString name="uni01CD.ss01">
          -81 callsubr
          53 139 -24 callsubr
          261 749 -98 callgsubr
          274 -882 rmoveto
          -106 callgsubr
          endchar
        </CharString>
        <CharString name="uni01CE">
          -85 callgsubr
          86 139 32 callgsubr
          205 604 -98 callgsubr
          73 -745 -80 callgsubr
          hintmask 01111110
          -107 callsubr
          hintmask 10111110
          -102 callsubr
          endchar
        </CharString>
        <CharString name="uni01CF">
          -24 callgsubr
          81 139 hstem
          84 90 vstem
          84 749 -98 callgsubr
          89 -882 -29 callgsubr
        </CharString>
</ttFont>
